<?xml version="1.0" standalone="no"?>
<!DOCTYPE svg PUBLIC "-//W3C//DTD SVG 20010904//EN"
 "http://www.w3.org/TR/2001/REC-SVG-20010904/DTD/svg10.dtd">
<svg version="1.0" xmlns="http://www.w3.org/2000/svg"
 width="636.000000pt" height="360.000000pt" viewBox="0 0 636.000000 360.000000"
 preserveAspectRatio="xMidYMid meet">

<g transform="translate(0.000000,360.000000) scale(0.100000,-0.100000)"
fill="#000000" stroke="none">
<path d="M1205 2572 c-96 -29 -154 -61 -216 -123 -131 -127 -153 -294 -56
-420 41 -54 91 -80 169 -86 l63 -6 -31 34 c-118 127 -117 354 1 457 81 72 175
102 323 102 170 0 284 -36 581 -184 69 -35 147 -71 174 -81 26 -10 47 -19 47
-21 0 -1 -25 -38 -56 -81 -78 -108 -175 -311 -230 -481 -28 -85 -50 -138 -55
-130 -4 7 -28 114 -53 238 -26 124 -49 233 -52 243 -5 15 -14 17 -52 15 l-47
-3 -75 -257 c-41 -141 -78 -254 -82 -250 -3 4 -27 108 -53 232 -26 124 -49
233 -51 243 -4 14 1 17 30 17 20 0 36 5 36 10 0 6 -48 10 -125 10 -77 0 -125
-4 -125 -10 0 -5 20 -10 45 -10 25 0 45 -3 45 -6 0 -3 29 -144 65 -313 36
-170 65 -313 65 -320 0 -6 -13 -11 -30 -11 -16 0 -30 -4 -30 -10 0 -6 37 -10
90 -10 53 0 90 4 90 10 0 6 -13 10 -30 10 -16 0 -30 3 -30 6 0 6 92 325 152
527 11 38 24 65 28 60 4 -4 33 -129 64 -278 32 -148 60 -280 63 -292 4 -20 1
-23 -26 -23 -17 0 -31 -4 -31 -10 0 -6 37 -10 90 -10 53 0 90 4 90 10 0 6 -13
10 -30 10 -16 0 -30 3 -30 8 0 25 55 225 89 324 69 199 174 402 251 486 l31
33 92 -21 c232 -55 414 -24 457 79 26 64 -39 112 -160 119 -121 7 -250 -34
-352 -112 l-45 -34 -79 32 c-43 19 -148 67 -233 109 -261 129 -411 175 -591
182 -91 4 -127 1 -175 -13z m1573 -209 c68 -33 52 -90 -36 -131 -50 -23 -69
-26 -157 -25 -91 1 -217 22 -253 42 -30 17 113 100 216 126 71 18 180 12 230
-12z"/>
<path d="M1515 2391 c93 -26 164 -49 320 -105 144 -52 153 -49 26 8 -122 55
-285 106 -355 112 l-61 5 70 -20z"/>
<path d="M2960 2210 c0 -7 360 -10 1060 -10 700 0 1060 3 1060 10 0 7 -360 10
-1060 10 -700 0 -1060 -3 -1060 -10z"/>
<path d="M3140 2051 c-82 -43 -95 -101 -88 -406 3 -176 6 -197 24 -222 39 -51
70 -67 143 -71 96 -6 144 22 166 96 5 19 3 22 -18 22 -18 0 -27 -7 -31 -25
-14 -56 -82 -84 -137 -55 -46 25 -53 61 -57 304 -5 250 1 291 45 325 63 50
140 11 154 -78 9 -59 13 -66 28 -56 7 3 11 43 11 96 0 72 -3 89 -15 89 -8 0
-15 -7 -15 -15 0 -19 -9 -19 -34 0 -29 22 -133 20 -176 -4z"/>
<path d="M3590 2041 c-57 -30 -72 -67 -80 -201 -11 -169 2 -380 27 -422 26
-44 72 -69 141 -75 69 -5 115 15 149 66 22 33 23 40 23 293 0 283 -2 297 -59
337 -39 28 -150 29 -201 2z m158 -16 c47 -13 57 -55 60 -250 2 -99 1 -218 -3
-264 -6 -75 -10 -88 -35 -113 -33 -32 -77 -37 -114 -13 -46 30 -51 62 -51 327
0 235 1 248 21 275 24 32 62 54 84 49 8 -3 25 -7 38 -11z"/>
<path d="M4050 2052 c-24 -8 -7 -21 33 -24 36 -3 42 -6 45 -28 3 -29 -71 -267
-129 -413 -47 -118 -110 -244 -155 -313 l-34 -52 -73 20 c-99 28 -304 30 -362
5 -59 -26 -75 -45 -75 -87 0 -42 23 -71 79 -99 114 -59 269 -26 387 82 l54 49
73 -30 c378 -159 498 -201 697 -244 74 -17 131 -21 255 -22 147 0 167 2 250
27 218 67 367 175 413 300 25 67 29 170 9 220 -37 87 -128 147 -224 147 l-58
0 37 -30 c20 -17 50 -58 67 -92 26 -52 31 -72 31 -137 0 -63 -5 -86 -29 -137
-51 -108 -192 -223 -320 -260 -67 -20 -244 -22 -351 -5 -122 21 -297 67 -410
110 -98 36 -410 168 -418 175 -2 2 12 28 31 57 80 126 178 353 243 564 25 82
28 87 35 60 4 -16 31 -144 60 -282 50 -242 54 -253 75 -253 19 0 26 9 39 53
52 176 170 527 177 527 5 0 6 -125 3 -277 l-6 -278 -25 -3 c-13 -2 -24 -8 -24
-13 0 -5 43 -9 95 -9 57 0 95 4 95 10 0 6 -9 10 -20 10 -20 0 -20 7 -20 325
l0 325 36 0 c24 0 34 4 32 13 -3 6 -10 12 -16 11 -7 -1 -61 -2 -122 -2 -66 -1
-110 -6 -110 -12 0 -5 16 -10 35 -10 19 0 35 -5 35 -10 0 -18 -152 -475 -161
-484 -5 -6 -9 -7 -9 -4 0 7 -74 365 -89 428 -16 67 -15 70 25 70 24 0 34 4 31
13 -3 9 -35 12 -115 12 -62 0 -116 -1 -122 -3z m-358 -827 c40 -9 77 -20 83
-26 13 -14 -53 -71 -125 -107 -105 -52 -259 -39 -310 25 -37 47 -18 82 57 109
51 18 205 17 295 -1z"/>
<path d="M4853 2052 c-58 -1 -103 -7 -103 -12 0 -6 11 -10 25 -10 l25 0 0
-325 0 -325 -25 0 c-14 0 -25 -4 -25 -10 0 -6 62 -10 165 -10 l165 0 0 55 c0
42 -3 55 -15 55 -11 0 -15 -12 -15 -45 l0 -45 -80 0 -80 0 0 95 0 95 55 0 c42
0 55 3 55 15 0 12 -13 15 -55 15 l-55 0 0 215 0 215 80 0 80 0 0 -45 c0 -33 4
-45 15 -45 20 0 22 110 3 110 -7 1 -35 2 -63 3 -27 1 -96 1 -152 -1z"/>
<path d="M2200 2040 c0 -5 11 -10 25 -10 l25 0 0 -325 0 -325 -25 0 c-14 0
-25 -4 -25 -10 0 -6 58 -10 155 -10 l155 0 0 55 c0 65 -17 74 -22 13 l-3 -43
-72 -3 c-83 -3 -75 -17 -75 118 l0 75 51 3 c66 4 67 22 1 22 -41 0 -50 3 -50
18 -1 9 -1 105 -1 212 l0 195 75 3 76 3 0 -46 c0 -28 4 -44 10 -40 6 3 10 28
10 56 l0 49 -155 0 c-97 0 -155 -4 -155 -10z"/>
<path d="M2645 2040 c3 -5 15 -10 26 -10 18 0 19 -10 19 -325 0 -318 0 -325
-20 -325 -11 0 -20 -4 -20 -10 0 -6 60 -10 160 -10 l160 0 0 55 c0 65 -17 74
-22 13 l-3 -43 -80 0 -80 0 -3 323 -2 322 25 0 c14 0 25 5 25 10 0 6 -39 10
-96 10 -61 0 -93 -4 -89 -10z"/>
<path d="M1270 1198 c0 -10 196 -13 945 -13 749 0 945 3 945 13 0 9 -196 12
-945 12 -749 0 -945 -3 -945 -12z"/>
<path d="M4220 1191 c30 -17 237 -91 310 -110 41 -11 113 -25 160 -31 88 -10
227 -14 218 -5 -3 3 -54 10 -114 15 -125 12 -264 43 -446 100 -125 40 -157 47
-128 31z"/>
</g>
</svg>
