<?xml version="1.0" standalone="no"?>
<!DOCTYPE svg PUBLIC "-//W3C//DTD SVG 20010904//EN"
 "http://www.w3.org/TR/2001/REC-SVG-20010904/DTD/svg10.dtd">
<svg version="1.0" xmlns="http://www.w3.org/2000/svg"
 width="800.000000pt" height="800.000000pt" viewBox="0 0 800.000000 800.000000"
 preserveAspectRatio="xMidYMid meet">

<g transform="translate(0.000000,800.000000) scale(0.100000,-0.100000)"
fill="#000000" stroke="none">
<path d="M4841 7986 c-16 -19 -26 -180 -11 -171 14 8 24 -20 15 -42 -6 -16 -8
-15 -18 7 -16 39 -19 3 -4 -59 15 -68 38 -82 30 -19 -6 38 -4 41 9 30 13 -10
16 -9 21 8 3 11 1 20 -4 20 -4 0 -6 7 -3 15 9 21 44 -25 44 -57 0 -13 4 -28 9
-33 5 -6 12 -34 15 -63 10 -100 29 -170 43 -165 9 4 13 -4 13 -25 0 -17 5 -34
10 -37 13 -8 13 -35 -1 -35 -6 0 -18 18 -26 40 -9 22 -20 37 -24 34 -5 -3 -6
2 -3 10 4 11 0 16 -14 16 -17 0 -20 -6 -19 -27 2 -17 8 -28 17 -28 16 0 40
-45 32 -59 -3 -5 -9 1 -14 13 -6 18 -14 22 -31 17 -25 -6 -41 2 -50 24 -4 11
-7 10 -12 -7 -4 -13 -11 -23 -16 -23 -15 0 -28 36 -23 61 5 21 4 22 -6 7 -18
-29 -30 -20 -28 21 1 34 4 39 18 31 12 -6 21 -4 31 9 20 23 8 33 -56 50 -27 7
-56 15 -62 17 -7 2 -13 -4 -13 -12 0 -8 4 -13 8 -10 10 6 52 -47 52 -63 0 -6
-10 -10 -22 -8 -26 2 -25 6 -10 -134 5 -48 12 -91 16 -98 9 -13 -3 -81 -14
-81 -5 0 -11 8 -14 18 -2 9 -4 -1 -3 -23 0 -22 -2 -45 -6 -51 -3 -6 -7 -27 -9
-47 -2 -35 -22 -51 -30 -25 -2 6 -10 9 -16 7 -9 -3 -4 -15 13 -39 21 -29 23
-36 10 -38 -8 -2 -15 -7 -15 -12 0 -5 -10 -18 -22 -30 -39 -36 -47 -70 -27
-109 16 -30 16 -36 4 -45 -11 -8 -12 -15 -4 -26 8 -11 12 -12 16 -2 6 14 33
16 33 2 0 -5 -7 -10 -16 -10 -11 0 -14 -5 -9 -17 12 -33 18 -160 6 -143 -7 9
-11 10 -11 3 0 -6 5 -15 10 -18 11 -7 9 -54 -2 -58 -9 -3 -58 41 -58 52 0 5
-7 12 -16 15 -12 4 -10 -1 5 -23 22 -30 27 -46 13 -37 -5 3 -6 -8 -4 -24 2
-17 8 -27 13 -24 5 3 12 -3 16 -13 4 -10 15 -26 26 -35 11 -10 16 -18 11 -18
-16 -1 41 -40 58 -40 9 0 21 -6 25 -13 4 -8 17 -19 28 -26 19 -11 18 -12 -4
-5 -15 4 -21 2 -17 -4 4 -6 50 -25 103 -42 54 -17 101 -36 105 -43 4 -7 8 2 8
23 0 25 -13 55 -47 105 -25 39 -50 72 -55 73 -4 2 -5 8 -2 14 4 6 3 13 -2 17
-13 9 -36 63 -29 69 7 7 5 10 55 -83 49 -92 78 -135 90 -135 20 0 38 277 29
430 -2 25 1 54 5 65 18 43 16 84 -4 95 -42 23 -8 72 35 52 23 -10 25 -9 29 21
3 18 7 74 10 124 4 72 2 96 -9 107 -8 8 -15 19 -15 25 0 6 -9 20 -21 32 -21
21 -35 89 -18 89 5 0 9 -6 9 -14 0 -8 6 -27 14 -43 8 -15 20 -40 27 -55 26
-57 46 -22 54 93 3 46 10 143 15 214 12 150 12 159 12 243 -1 43 3 62 12 62 9
0 12 -22 10 -82 -3 -108 -15 -281 -20 -289 -2 -4 -4 -57 -5 -118 0 -61 -4
-111 -9 -111 -14 0 -22 -32 -26 -105 -2 -38 -6 -92 -9 -120 -8 -84 -14 -191
-9 -167 3 12 9 22 13 22 5 0 6 12 4 28 -3 19 -2 23 5 13 8 -11 10 -11 15 0 4
10 6 9 6 -3 1 -12 9 -18 25 -18 23 0 24 -2 19 -61 -5 -51 -3 -63 10 -71 10 -5
17 -18 17 -28 0 -13 5 -17 14 -14 9 3 20 -3 28 -15 11 -19 14 -19 30 -4 10 9
18 20 18 26 0 5 13 26 29 46 15 20 36 51 45 69 9 17 21 32 27 32 5 0 -11 -30
-36 -66 -25 -37 -45 -72 -45 -80 0 -16 -49 -90 -82 -124 -41 -43 -58 -76 -45
-89 8 -8 8 -11 0 -11 -6 0 -13 6 -16 13 -5 14 -36 -20 -37 -40 0 -16 26 -17
35 -3 5 8 11 7 21 -1 19 -15 18 -35 -2 -43 -12 -4 -14 -1 -9 14 7 23 9 23 -32
11 -27 -8 -31 -7 -25 7 5 15 4 16 -13 2 -49 -39 -93 -93 -99 -121 -7 -35 0
-52 17 -42 7 3 4 -3 -5 -14 -10 -11 -18 -36 -18 -55 0 -32 3 -36 23 -33 41 6
202 82 199 94 -1 7 2 9 8 6 6 -4 20 1 31 11 10 9 19 14 19 10 0 -4 17 6 37 21
35 26 50 42 125 127 31 35 136 216 168 291 40 91 100 280 91 283 -5 2 -2 11 9
22 10 10 21 40 25 67 12 88 13 97 28 153 26 97 30 130 13 130 -12 0 -12 5 -3
30 6 17 15 30 19 30 10 0 -1 50 -15 67 -5 7 -14 10 -20 6 -5 -3 -7 -1 -3 5 3
6 1 14 -5 18 -6 4 -9 19 -5 36 3 16 1 39 -6 51 -8 16 -8 22 1 25 6 2 11 10 11
19 0 10 -6 12 -20 8 -12 -4 -20 -2 -20 5 0 7 -6 10 -14 7 -17 -7 -36 11 -30
28 3 7 1 16 -5 20 -17 10 -13 38 4 31 19 -7 19 -1 0 28 -11 16 -22 22 -35 19
-13 -3 -20 0 -20 8 -1 9 -8 6 -19 -8 -11 -13 -24 -23 -29 -23 -5 0 -12 -10
-16 -22 -4 -17 -8 -20 -17 -11 -14 14 -14 66 0 113 6 19 11 50 11 67 l0 33
-180 0 -180 0 0 -40 c0 -28 -4 -40 -14 -40 -11 0 -13 10 -9 40 l6 40 -57 0
c-31 0 -56 -3 -56 -7 1 -5 9 -24 19 -43 18 -32 18 -36 2 -70 -9 -19 -19 -37
-22 -40 -4 -3 -9 -16 -10 -30 l-4 -24 -32 31 c-21 21 -39 30 -52 26 -21 -5
-25 3 -36 74 -5 30 -10 40 -20 36 -9 -3 -17 5 -21 21 -7 29 -16 33 -33 12z
m546 -32 c-3 -3 -12 -4 -19 -1 -8 3 -5 6 6 6 11 1 17 -2 13 -5z m-500 -32 c16
-10 20 -89 5 -104 -9 -9 -12 -9 -13 3 -1 7 -1 17 0 21 0 4 -3 18 -9 32 -6 17
-5 26 3 30 9 3 8 7 -3 15 -17 12 -2 15 17 3z m138 -191 c10 -17 30 -34 42 -40
15 -7 23 -19 22 -33 l0 -23 -10 23 c-6 15 -13 21 -21 15 -7 -4 -17 -8 -23 -8
-5 0 -9 -15 -9 -33 1 -21 -3 -32 -12 -32 -10 0 -14 12 -14 40 0 22 -4 40 -9
40 -16 0 -21 30 -9 55 14 32 19 31 43 -4z m590 19 c-3 -5 -10 -10 -16 -10 -5
0 -9 5 -9 10 0 6 7 10 16 10 8 0 12 -4 9 -10z m-234 -43 c-1 -12 -15 -9 -19 4
-3 6 1 10 8 8 6 -3 11 -8 11 -12z m-380 -140 c-13 -13 -26 -3 -16 12 3 6 11 8
17 5 6 -4 6 -10 -1 -17z m36 -69 c-3 -8 -6 -5 -6 6 -1 11 2 17 5 13 3 -3 4
-12 1 -19z m-227 -132 c0 -5 -7 -3 -15 4 -8 7 -12 17 -9 22 7 10 24 -9 24 -26z
m56 -33 c17 -17 17 -18 -5 -21 -27 -4 -47 11 -37 27 10 16 22 14 42 -6z m661
-35 c-3 -8 -6 -5 -6 6 -1 11 2 17 5 13 3 -3 4 -12 1 -19z m-610 6 c-3 -3 -12
-4 -19 -1 -8 3 -5 6 6 6 11 1 17 -2 13 -5z m8 -64 c-7 -11 -35 -14 -35 -4 0 3
5 15 11 26 10 19 12 20 21 5 5 -10 6 -22 3 -27z m592 18 c-3 -8 -6 -5 -6 6 -1
11 2 17 5 13 3 -3 4 -12 1 -19z m-487 -68 c-6 -11 -15 -20 -20 -20 -16 0 -11
18 8 29 24 14 24 14 12 -9z m27 -32 c-3 -8 -6 -5 -6 6 -1 11 2 17 5 13 3 -3 4
-12 1 -19z m-147 -24 c0 -8 -4 -12 -10 -9 -5 3 -10 10 -10 16 0 5 5 9 10 9 6
0 10 -7 10 -16z m50 -4 c0 -5 -5 -10 -11 -10 -5 0 -7 5 -4 10 3 6 8 10 11 10
2 0 4 -4 4 -10z m80 -21 c0 -5 5 -7 10 -4 6 3 10 -4 10 -17 0 -16 -3 -19 -9
-10 -4 8 -11 13 -15 13 -31 -4 -45 1 -40 14 7 17 44 21 44 4z m-280 -21 c0
-16 -3 -19 -11 -11 -6 6 -8 16 -5 22 11 17 16 13 16 -11z m287 -130 c-3 -7 -5
-2 -5 12 0 14 2 19 5 13 2 -7 2 -19 0 -25z m369 -19 l-16 -34 6 35 c7 41 16
59 21 43 2 -6 -3 -26 -11 -44z m-666 -4 c0 -14 -4 -25 -10 -25 -11 0 -14 33
-3 43 11 11 13 8 13 -18z m477 -47 c-3 -8 -6 -5 -6 6 -1 11 2 17 5 13 3 -3 4
-12 1 -19z m-29 -84 c-7 -15 -14 -21 -16 -15 -5 16 5 41 17 41 7 0 6 -10 -1
-26z m-208 -23 c0 -6 -4 -13 -10 -16 -5 -3 -10 1 -10 9 0 9 5 16 10 16 6 0 10
-4 10 -9z m-200 -102 c0 -6 -4 -7 -10 -4 -5 3 -10 11 -10 16 0 6 5 7 10 4 6
-3 10 -11 10 -16z m40 -142 c0 -5 -4 -5 -10 -2 -5 3 -10 14 -10 23 0 15 2 15
10 2 5 -8 10 -19 10 -23z m411 -4 c13 -16 12 -17 -3 -4 -10 7 -18 15 -18 17 0
8 8 3 21 -13z m-21 -42 c0 -4 -6 -8 -14 -8 -8 0 -12 6 -9 14 5 13 23 9 23 -6z
m50 4 c0 -8 -4 -15 -10 -15 -5 0 -10 7 -10 15 0 8 5 15 10 15 6 0 10 -7 10
-15z m-585 -25 c3 -5 1 -10 -4 -10 -6 0 -11 5 -11 10 0 6 2 10 4 10 3 0 8 -4
11 -10z m585 -10 c0 -5 -4 -10 -10 -10 -5 0 -10 5 -10 10 0 6 5 10 10 10 6 0
10 -4 10 -10z m-50 -84 c0 -3 -4 -8 -10 -11 -5 -3 -10 -1 -10 4 0 6 5 11 10
11 6 0 10 -2 10 -4z m50 -16 c0 -5 -2 -10 -4 -10 -3 0 -8 5 -11 10 -3 6 -1 10
4 10 6 0 11 -4 11 -10z m-170 -30 c0 -5 -7 -10 -16 -10 -8 0 -12 5 -9 10 3 6
10 10 16 10 5 0 9 -4 9 -10z"/>
<path d="M4658 7748 c3 -13 14 -31 24 -42 18 -19 18 -19 18 12 0 21 -6 35 -19
42 -28 14 -30 13 -23 -12z"/>
<path d="M4906 7535 c-3 -8 -1 -15 4 -15 6 0 10 7 10 15 0 8 -2 15 -4 15 -2 0
-6 -7 -10 -15z"/>
<path d="M98 7427 c-10 -8 -18 -19 -18 -24 0 -6 -7 -16 -15 -23 -8 -7 -12 -16
-9 -22 3 -5 -8 -14 -25 -21 l-31 -11 0 -238 0 -238 40 0 c29 0 40 4 40 15 0 9
9 15 23 15 13 0 29 6 35 12 10 10 14 10 21 0 6 -10 13 -1 25 28 13 34 20 40
36 35 14 -5 20 -2 20 10 0 13 4 14 20 5 11 -6 21 -7 22 -3 0 4 2 13 3 18 2 6
3 45 4 87 1 53 6 81 16 92 16 16 21 116 6 116 -5 0 -17 21 -27 48 -25 66 -44
89 -79 96 -16 3 -43 8 -60 11 -18 3 -37 0 -47 -8z"/>
<path d="M7280 7397 c0 -8 3 -17 8 -19 4 -1 19 -22 35 -45 15 -24 32 -43 38
-43 5 0 8 -4 5 -8 -3 -5 13 -26 34 -47 22 -22 40 -44 40 -50 0 -5 9 -16 20
-23 11 -7 20 -17 20 -23 0 -37 155 -120 228 -122 36 -2 52 2 52 11 0 6 7 12
15 12 35 0 94 51 95 82 0 9 -7 23 -15 32 -8 8 -15 17 -15 19 0 12 -56 67 -67
67 -7 0 -13 5 -13 11 0 5 -17 17 -37 26 -21 8 -40 18 -43 22 -5 6 -98 52 -140
69 -14 5 -38 15 -55 22 -16 7 -69 15 -117 17 -74 4 -88 3 -88 -10z"/>
<path d="M4713 7233 c1 -18 5 -33 10 -33 10 0 9 32 -3 50 -7 11 -9 6 -7 -17z"/>
<path d="M3822 6988 c-18 -18 -15 -27 8 -25 11 1 20 7 20 14 0 18 -15 24 -28
11z"/>
<path d="M4640 6980 c0 -11 4 -20 9 -20 5 0 7 9 4 20 -3 11 -7 20 -9 20 -2 0
-4 -9 -4 -20z"/>
<path d="M3728 6940 c-34 -32 -34 -38 -2 -85 28 -42 22 -60 -20 -49 -29 7 -32
14 -14 32 9 9 7 13 -6 18 -13 5 -25 -2 -41 -22 l-23 -29 36 -16 c63 -27 107
-39 145 -39 54 0 45 -17 -15 -29 l-53 -10 60 2 c53 2 63 -1 82 -23 12 -14 23
-20 23 -14 0 6 -11 23 -24 37 -14 15 -37 44 -52 64 -15 21 -41 52 -58 70 -28
31 -29 34 -17 74 7 22 11 42 9 43 -2 1 -15 -10 -30 -24z"/>
<path d="M3860 6815 c0 -15 4 -24 10 -20 6 3 10 12 10 20 0 8 -4 17 -10 20 -6
4 -10 -5 -10 -20z"/>
<path d="M4001 6812 c-1 -8 -6 -10 -13 -6 -10 5 -10 4 -1 -6 15 -16 28 -8 20
12 -4 11 -6 11 -6 0z"/>
<path d="M5069 6818 c-8 -24 -7 -58 1 -58 5 0 10 14 10 30 0 17 -2 30 -5 30
-3 0 -5 -1 -6 -2z"/>
<path d="M5015 6790 c4 -6 11 -8 16 -5 14 9 11 15 -7 15 -8 0 -12 -5 -9 -10z"/>
<path d="M3577 6765 c-8 -19 2 -24 36 -18 25 5 26 6 10 19 -24 18 -40 17 -46
-1z"/>
<path d="M5050 6730 c0 -6 7 -13 15 -16 8 -4 15 -13 15 -21 0 -13 -3 -13 -15
-3 -8 7 -15 11 -16 9 -1 -2 -3 -23 -5 -46 -3 -33 0 -43 11 -43 17 0 20 -16 6
-25 -5 -3 -13 0 -17 7 -5 7 -13 -17 -20 -57 -16 -89 -17 -125 -4 -125 6 0 22
12 35 28 18 20 23 37 21 67 -2 22 1 45 6 52 5 6 8 27 6 45 -2 26 -7 32 -22 30
-11 -2 -15 1 -11 8 4 6 15 8 25 5 15 -5 17 0 15 25 -1 17 -5 33 -8 36 -3 3 -3
13 0 22 4 15 3 15 -6 2 -7 -10 -11 -11 -11 -2 0 6 -4 12 -10 12 -5 0 -10 -5
-10 -10z m13 -257 c3 -5 -1 -14 -9 -20 -14 -14 -30 0 -19 17 7 12 22 13 28 3z"/>
<path d="M5150 6720 c-12 -8 -12 -10 3 -16 11 -4 16 -13 12 -24 -5 -14 -2 -17
13 -13 14 3 21 -2 25 -17 4 -17 1 -24 -14 -27 -11 -3 -19 -12 -17 -21 6 -29
23 -21 50 21 25 39 25 43 11 59 -9 10 -22 18 -30 18 -7 0 -16 7 -19 15 -7 17
-13 18 -34 5z"/>
<path d="M4025 6700 c-7 -12 12 -12 40 0 18 8 17 9 -7 9 -15 1 -30 -3 -33 -9z"/>
<path d="M3505 6670 c-25 -28 -12 -37 19 -12 14 10 22 22 19 26 -10 10 -19 7
-38 -14z"/>
<path d="M4081 6654 c0 -11 3 -14 6 -6 3 7 2 16 -1 19 -3 4 -6 -2 -5 -13z"/>
<path d="M3650 6640 c12 -8 12 -10 -5 -10 -20 -1 -20 -1 -1 -15 26 -19 33 -19
33 3 0 17 -14 32 -32 32 -5 0 -3 -5 5 -10z"/>
<path d="M3923 6632 c10 -10 17 -22 17 -25 0 -11 39 -47 51 -47 6 0 5 5 -3 13
-7 8 -24 28 -37 45 -13 18 -29 32 -34 32 -6 0 -3 -8 6 -18z"/>
<path d="M4038 6643 c6 -2 18 -2 25 0 6 3 1 5 -13 5 -14 0 -19 -2 -12 -5z"/>
<path d="M3030 6626 c0 -8 9 -18 20 -21 11 -3 20 -13 20 -21 0 -8 -3 -13 -8
-10 -4 2 -15 -2 -25 -9 -17 -12 -16 -14 9 -34 14 -11 31 -18 36 -15 6 4 6 9
-2 14 -7 4 -8 10 -4 13 13 7 47 -8 68 -32 11 -11 27 -21 37 -21 24 0 49 -10
49 -21 0 -12 -37 -11 -45 1 -3 6 -24 10 -45 10 -21 0 -42 5 -45 10 -3 6 -30
10 -58 10 -34 0 -63 7 -85 20 -18 11 -49 22 -70 25 -20 3 -53 7 -73 11 l-37 6
2 -57 c1 -49 5 -60 29 -79 29 -23 34 -45 16 -63 -9 -9 -8 -24 2 -59 12 -42 19
-50 59 -67 25 -11 47 -21 49 -23 3 -3 -5 -18 -17 -34 -28 -37 -28 -66 -1 -80
15 -9 19 -18 15 -35 -5 -19 0 -25 27 -35 17 -7 59 -23 92 -36 47 -19 93 -26
213 -34 299 -20 441 -7 570 49 39 17 73 31 77 31 11 0 101 64 147 105 l45 40
-38 30 c-21 17 -37 37 -36 45 1 9 -8 33 -21 54 -19 31 -27 37 -45 32 -12 -4
-31 -8 -42 -10 -11 -2 -31 -8 -44 -13 -22 -9 -18 -11 35 -28 32 -10 54 -20 47
-22 -6 -2 -42 5 -80 16 -37 11 -95 23 -128 27 -53 6 -187 39 -237 59 -10 4
-18 11 -18 17 0 5 -12 25 -26 44 -24 31 -26 37 -14 59 12 22 11 27 -14 50 -26
24 -64 35 -51 16 14 -23 -18 -20 -40 3 -27 29 -51 33 -81 12 -18 -13 -26 -12
-79 15 -32 16 -73 29 -91 29 -18 0 -36 5 -39 10 -9 15 -25 12 -25 -4z m240
-114 c0 -15 -2 -15 -10 -2 -13 20 -13 33 0 25 6 -3 10 -14 10 -23z m34 -47
c15 -14 34 -25 42 -25 7 0 14 -4 14 -10 0 -14 -5 -13 -50 10 -22 11 -40 27
-40 35 0 20 3 19 34 -10z"/>
<path d="M4060 6621 c0 -5 7 -11 15 -15 9 -3 15 0 15 9 0 8 -7 15 -15 15 -8 0
-15 -4 -15 -9z"/>
<path d="M4631 6614 c0 -11 3 -14 6 -6 3 7 2 16 -1 19 -3 4 -6 -2 -5 -13z"/>
<path d="M3716 6583 c5 -5 12 -12 16 -18 4 -6 8 -2 8 8 0 9 -7 17 -17 17 -9 0
-12 -3 -7 -7z"/>
<path d="M4070 6583 c0 -4 5 -15 10 -23 8 -13 10 -13 10 2 0 9 -4 20 -10 23
-5 3 -10 3 -10 -2z"/>
<path d="M5140 6550 c-8 -5 -11 -12 -7 -16 4 -4 15 0 24 9 18 18 8 23 -17 7z"/>
<path d="M3990 6541 c0 -6 5 -13 11 -16 6 -4 8 -13 5 -21 -6 -16 30 -44 56
-44 24 0 23 2 -19 49 -35 40 -53 50 -53 32z"/>
<path d="M3704 6525 c8 -8 20 -15 27 -15 7 0 4 6 -7 15 -25 19 -40 19 -20 0z"/>
<path d="M5110 6509 c0 -5 5 -7 10 -4 6 3 10 8 10 11 0 2 -4 4 -10 4 -5 0 -10
-5 -10 -11z"/>
<path d="M3750 6500 c0 -5 5 -10 11 -10 5 0 7 5 4 10 -3 6 -8 10 -11 10 -2 0
-4 -4 -4 -10z"/>
<path d="M3790 6475 c7 -8 19 -15 26 -15 8 0 14 -5 14 -11 0 -7 -10 -9 -24 -5
-14 3 -27 2 -30 -3 -3 -5 -16 -7 -29 -4 -12 3 -19 2 -15 -2 11 -11 88 -7 104
5 8 8 14 8 19 0 8 -12 -36 -30 -75 -30 -16 0 -32 -4 -35 -10 -3 -5 3 -10 15
-10 14 0 20 -5 18 -16 -4 -25 22 -29 29 -5 3 12 13 21 22 21 14 0 14 2 1 10
-12 8 -9 10 12 10 15 0 29 4 32 9 8 12 55 20 61 11 3 -5 21 -7 40 -6 31 1 34
-1 30 -22 -3 -18 0 -22 13 -20 9 3 16 10 14 17 -2 9 5 12 22 9 14 -3 23 -1 20
3 -3 5 3 9 12 9 12 0 15 3 8 10 -5 5 -59 13 -119 17 -72 4 -125 13 -154 25
-35 15 -41 15 -31 3z"/>
<path d="M3934 6400 c-6 -6 -30 -14 -54 -18 -24 -4 -46 -14 -48 -21 -6 -19 79
-6 94 14 6 8 16 15 23 15 6 0 11 5 11 10 0 13 -13 13 -26 0z"/>
<path d="M3962 6380 c-15 -24 0 -27 22 -4 19 19 20 24 3 24 -7 0 -18 -9 -25
-20z"/>
<path d="M4690 6331 c0 -5 7 -11 15 -15 8 -3 15 -1 15 3 0 5 -7 11 -15 15 -8
3 -15 1 -15 -3z"/>
<path d="M6419 6327 c-19 -14 -26 -36 -34 -101 -3 -28 -7 -51 -9 -53 -1 -2
-27 -16 -57 -31 -42 -21 -59 -37 -77 -72 -13 -25 -32 -54 -43 -66 -15 -16 -19
-35 -19 -92 0 -52 4 -72 13 -72 7 0 64 21 127 47 63 25 162 63 220 83 l105 38
0 38 c0 22 -10 58 -24 84 -13 25 -31 59 -39 75 -19 37 -97 115 -115 115 -7 0
-17 4 -22 9 -6 6 -16 5 -26 -2z"/>
<path d="M4036 6299 c12 -27 21 -35 35 -32 15 4 16 9 8 24 -5 11 -7 24 -4 29
3 6 1 10 -4 10 -6 0 -11 -10 -11 -22 l0 -23 -21 25 -20 25 17 -36z"/>
<path d="M4290 6234 c0 -4 34 -40 75 -81 58 -56 74 -79 70 -93 -5 -16 9 -27
87 -64 51 -25 120 -61 153 -80 33 -19 77 -45 98 -56 87 -48 231 -167 372 -309
82 -83 153 -151 157 -151 21 0 -5 42 -62 100 -125 130 -204 226 -220 267 -5
12 -21 24 -39 28 -17 4 -65 29 -106 56 -42 27 -78 49 -80 49 -2 0 -21 12 -42
26 -21 14 -87 51 -147 82 -60 32 -117 61 -127 67 -11 5 -19 13 -19 17 0 5 -5
8 -11 8 -7 0 -43 32 -81 70 -68 68 -78 77 -78 64z"/>
<path d="M6077 5817 c4 -6 0 -8 -10 -4 -11 4 -20 -1 -27 -13 -13 -25 -1 -26
40 -5 35 18 36 21 10 28 -13 3 -18 1 -13 -6z"/>
<path d="M4400 5811 c0 -5 7 -22 15 -37 19 -37 19 -64 0 -64 -8 0 -15 -7 -15
-15 0 -8 -5 -15 -11 -15 -8 0 -7 -5 2 -16 11 -13 9 -14 -17 -8 -16 3 -33 11
-38 15 -6 5 -21 9 -35 9 -24 0 -24 0 -6 -20 10 -12 40 -31 67 -43 26 -12 48
-28 48 -35 0 -7 -3 -11 -7 -9 -70 35 -129 58 -152 59 -19 1 -42 13 -63 32 -34
32 -95 59 -110 49 -5 -3 -17 2 -27 11 -9 8 -35 18 -56 21 -22 3 -57 8 -79 11
l-39 6 5 -50 5 -51 -54 -7 c-60 -7 -107 -44 -97 -76 4 -12 -9 -27 -48 -52 -42
-28 -69 -38 -133 -47 -44 -6 -97 -17 -118 -25 -20 -8 -61 -14 -91 -14 -33 0
-72 -8 -101 -21 -30 -13 -58 -19 -75 -15 -20 3 -47 -4 -87 -23 -32 -16 -89
-36 -126 -45 -82 -20 -143 -47 -217 -97 -30 -20 -69 -44 -87 -53 -39 -20 -73
-62 -73 -91 0 -12 -15 -39 -33 -61 -19 -21 -36 -47 -40 -56 -3 -10 -11 -18
-17 -18 -5 0 -10 -13 -10 -30 0 -24 3 -28 18 -23 28 10 82 54 82 67 0 6 15 28
33 49 27 30 41 37 70 37 20 0 38 4 42 9 3 5 22 15 43 21 59 19 98 38 144 73
46 35 149 86 213 107 22 7 55 19 73 26 18 8 46 14 63 14 17 0 45 10 62 23 65
48 178 61 233 28 30 -18 32 -23 36 -89 2 -47 9 -77 20 -89 9 -10 34 -50 55
-89 38 -72 95 -128 158 -158 122 -58 188 -78 290 -92 61 -8 142 -22 181 -30
64 -14 75 -13 115 1 24 9 98 35 163 57 129 44 128 43 278 205 26 28 65 61 88
74 63 36 55 45 -65 70 -58 12 -79 20 -78 30 2 8 -13 30 -32 48 -33 31 -46 61
-26 61 4 0 26 -14 47 -31 63 -50 164 -88 151 -56 -21 50 -20 51 13 20 19 -18
40 -33 47 -33 16 0 16 2 -1 42 -8 18 -22 62 -31 98 -36 139 -58 196 -90 232
-19 20 -38 46 -45 57 -6 12 -15 19 -20 16 -4 -3 -10 0 -12 5 -2 6 -18 13 -37
15 -19 2 -41 11 -51 20 -9 8 -23 15 -31 15 -16 0 -69 -46 -69 -60 0 -18 -45 0
-70 27 -14 15 -34 36 -45 45 -27 23 -95 51 -95 39z m382 -143 c-9 -9 -12 -7
-12 12 0 19 3 21 12 12 9 -9 9 -15 0 -24z m-276 -146 c16 -16 37 -31 47 -35 9
-3 17 -14 16 -24 0 -11 -3 -13 -6 -5 -2 6 -11 12 -19 12 -8 0 -17 7 -20 15 -4
8 -13 15 -21 15 -15 0 -42 27 -43 43 0 14 17 7 46 -21z m174 -142 c11 -11 16
-20 12 -20 -5 0 -17 9 -27 20 -10 11 -15 20 -12 20 4 0 16 -9 27 -20z m235
-19 c3 -5 1 -12 -5 -16 -5 -3 -10 1 -10 9 0 18 6 21 15 7z"/>
<path d="M7388 5363 c7 -3 16 -2 19 1 4 3 -2 6 -13 5 -11 0 -14 -3 -6 -6z"/>
<path d="M7588 4873 c12 -2 30 -2 40 0 9 3 -1 5 -23 4 -22 0 -30 -2 -17 -4z"/>
<path d="M7974 4869 c-3 -6 -19 -9 -35 -7 -15 3 -26 1 -23 -3 6 -11 -100 -23
-132 -15 -15 4 -23 3 -20 -3 4 -5 -3 -7 -16 -3 -19 5 -20 7 -5 10 34 7 16 22
-26 22 -41 0 -194 -29 -262 -49 -16 -5 -55 -12 -87 -15 -31 -3 -64 -9 -74 -13
-16 -6 -16 -7 2 -14 15 -6 12 -8 -11 -7 -59 3 -94 -2 -107 -16 -8 -7 -24 -17
-36 -20 -26 -9 -29 -26 -4 -26 9 0 78 9 152 20 137 20 212 25 130 9 -25 -5
-92 -16 -150 -24 -140 -21 -140 -21 -140 -55 0 -26 3 -29 23 -22 12 4 40 5 62
1 l40 -6 -42 -3 c-24 -1 -49 -3 -55 -4 -8 -1 -12 -16 -11 -41 2 -65 13 -169
19 -185 3 -8 12 -73 20 -145 8 -71 20 -150 25 -175 6 -24 16 -94 24 -155 8
-60 21 -164 30 -229 9 -66 14 -125 11 -132 -3 -8 -1 -16 4 -19 6 -4 10 -17 10
-31 0 -14 -4 -22 -10 -19 -16 10 -11 -11 5 -25 18 -15 16 -56 -2 -53 -7 2 -10
-4 -7 -12 4 -10 0 -15 -15 -15 -23 0 -28 -19 -9 -38 15 -15 48 -16 48 -1 0 5
-4 7 -10 4 -13 -8 -13 21 1 46 16 30 29 13 29 -39 l0 -47 24 51 c13 29 32 57
43 63 17 10 15 13 -17 41 -31 26 -33 35 -7 31 4 0 7 19 7 43 0 54 23 112 61
151 23 23 28 35 24 56 -8 34 21 107 46 114 14 5 19 16 19 40 0 27 7 39 33 58
17 14 41 27 52 29 15 2 21 12 23 38 2 23 12 43 31 60 15 14 34 36 41 49 11 21
16 23 60 17 36 -5 50 -3 60 9 7 8 18 15 25 15 7 0 16 7 19 16 6 17 56 16 101
0 19 -7 19 -7 3 7 -27 22 -21 30 7 11 l26 -17 -3 84 -3 84 -53 -3 -53 -4 5 41
c4 33 2 41 -11 41 -9 0 -13 6 -9 15 3 8 -2 21 -10 30 -12 11 -12 15 -2 15 7 0
1 11 -14 25 -24 20 -25 24 -10 28 15 4 15 5 -1 6 -10 0 -16 5 -12 10 3 6 -3
15 -14 21 -11 6 -18 17 -15 24 3 8 -1 20 -9 27 -12 12 -12 15 2 26 14 11 12
12 -14 13 l-30 1 30 14 30 13 -35 3 c-25 1 -28 3 -12 6 27 5 27 11 5 35 -10
11 -13 18 -8 17 6 -2 34 1 64 5 29 5 70 10 90 12 19 1 37 8 39 13 2 6 15 11
28 11 13 0 24 4 24 8 0 9 -108 -1 -205 -17 -33 -6 -71 -10 -85 -10 -30 1 79
28 135 33 75 7 155 29 155 43 0 16 -16 17 -26 2z m-594 -85 c0 -2 -9 -4 -21
-4 -11 0 -18 4 -14 10 5 8 35 3 35 -6z m37 10 c-3 -3 -12 -4 -19 -1 -8 3 -5 6
6 6 11 1 17 -2 13 -5z m-187 -38 c0 -2 -7 -6 -15 -10 -8 -3 -15 -1 -15 4 0 6
7 10 15 10 8 0 15 -2 15 -4z"/>
<path d="M7480 4860 l-45 -7 40 -1 c22 0 49 3 60 8 23 10 9 10 -55 0z"/>
<path d="M424 4804 c3 -9 6 -21 6 -29 0 -7 21 -33 46 -58 27 -27 43 -51 39
-58 -4 -6 -4 -14 1 -18 5 -3 14 -14 19 -24 17 -32 30 -14 28 38 -2 33 0 45 6
36 8 -12 12 -12 25 -2 23 19 20 34 -5 26 -15 -5 -19 -4 -15 4 12 19 -4 51 -25
51 -23 0 -57 16 -77 37 -19 19 -56 17 -48 -3z"/>
<path d="M3104 4755 c-9 -38 44 -75 107 -75 43 0 35 25 -19 67 -52 40 -79 42
-88 8z"/>
<path d="M7904 4761 c3 -5 15 -7 26 -4 28 7 25 13 -6 13 -14 0 -23 -4 -20 -9z"/>
<path d="M2965 4720 c3 -6 -1 -13 -9 -16 -9 -3 -14 -10 -11 -14 7 -11 -34 -50
-52 -50 -24 0 -147 -42 -187 -64 -22 -11 -51 -31 -65 -44 -13 -12 -31 -20 -38
-17 -8 3 -11 0 -8 -6 4 -6 14 -8 22 -5 11 5 13 2 9 -10 -5 -14 -4 -15 9 -4 12
10 16 9 21 -3 3 -9 11 -15 17 -13 7 1 9 1 4 -1 -4 -3 -5 -9 -2 -14 4 -5 -2 -6
-12 -3 -12 4 -10 -2 8 -18 29 -25 59 -78 59 -103 0 -10 -9 -29 -20 -45 -20
-28 -20 -28 0 -53 22 -28 26 -85 11 -151 -15 -61 18 -124 56 -108 16 6 18 19
18 102 0 88 2 95 20 95 33 0 65 -60 65 -121 l0 -54 39 0 c21 0 113 14 204 30
92 17 168 30 171 30 2 0 11 17 19 38 8 20 25 45 36 54 12 10 21 27 21 37 0 11
4 22 9 26 11 6 51 -41 51 -60 0 -13 67 -28 82 -19 15 9 9 40 -12 59 -11 10
-23 34 -26 54 -4 20 -13 45 -20 56 -19 26 -18 41 1 25 8 -7 15 -18 15 -25 0
-7 7 -15 15 -18 8 -4 26 -24 40 -47 27 -42 49 -46 39 -6 -7 29 12 103 28 108
18 6 -20 56 -45 60 -17 2 -23 11 -25 38 -5 48 -29 71 -125 116 -45 21 -84 42
-85 46 -12 28 -115 52 -109 26 1 -9 -14 -13 -53 -12 -63 1 -119 17 -148 42
-17 15 -18 19 -4 31 13 13 13 16 -4 28 -21 15 -38 17 -29 3z m419 -325 c4 -11
-1 -15 -19 -15 -16 0 -25 6 -25 15 0 8 9 15 19 15 10 0 21 -7 25 -15z"/>
<path d="M5660 4542 c-8 -3 -32 -22 -52 -44 -39 -40 -64 -47 -88 -25 -12 10
-12 9 0 -6 15 -20 15 -20 182 10 67 11 85 18 75 26 -23 22 -66 40 -81 34 -8
-3 -16 -2 -18 2 -2 4 -10 6 -18 3z"/>
<path d="M6130 4531 c0 -4 11 -6 25 -3 14 2 25 6 25 8 0 2 -11 4 -25 4 -14 0
-25 -4 -25 -9z"/>
<path d="M5808 4503 c6 -2 18 -2 25 0 6 3 1 5 -13 5 -14 0 -19 -2 -12 -5z"/>
<path d="M5970 4496 c0 -8 7 -16 15 -20 9 -3 15 0 15 8 0 8 -7 16 -15 20 -9 3
-15 0 -15 -8z"/>
<path d="M5478 4463 c7 -3 16 -2 19 1 4 3 -2 6 -13 5 -11 0 -14 -3 -6 -6z"/>
<path d="M5770 4460 c0 -5 5 -10 11 -10 5 0 7 5 4 10 -3 6 -8 10 -11 10 -2 0
-4 -4 -4 -10z"/>
<path d="M5483 4443 c9 -2 23 -2 30 0 6 3 -1 5 -18 5 -16 0 -22 -2 -12 -5z"/>
<path d="M5660 4436 c0 -2 7 -7 16 -10 8 -3 12 -2 9 4 -6 10 -25 14 -25 6z"/>
<path d="M716 4415 c-3 -8 -1 -15 4 -15 6 0 10 7 10 15 0 8 -2 15 -4 15 -2 0
-6 -7 -10 -15z"/>
<path d="M5388 4423 c7 -3 16 -2 19 1 4 3 -2 6 -13 5 -11 0 -14 -3 -6 -6z"/>
<path d="M4535 4315 c-31 -14 -32 -13 22 -30 17 -6 145 11 198 26 l30 9 -32
-3 c-18 -2 -33 0 -33 5 0 13 -152 8 -185 -7z m40 -23 c-3 -3 -11 0 -18 7 -9
10 -8 11 6 5 10 -3 15 -9 12 -12z"/>
<path d="M4808 4323 c7 -3 16 -2 19 1 4 3 -2 6 -13 5 -11 0 -14 -3 -6 -6z"/>
<path d="M4092 4233 c-6 -2 -10 -9 -7 -14 4 -5 -1 -6 -9 -3 -9 4 -16 1 -16 -6
0 -8 -11 -10 -32 -6 -18 3 -27 3 -19 0 11 -5 11 -8 0 -15 -16 -10 6 -7 161 23
58 11 107 22 110 24 2 3 -19 4 -48 2 -28 -2 -52 -6 -52 -10 0 -5 -5 -8 -11 -8
-5 0 -7 5 -3 11 5 8 1 8 -14 0 -11 -6 -29 -11 -39 -10 -16 0 -16 1 2 9 21 9 0
12 -23 3z"/>
<path d="M4550 4157 c0 -10 4 -17 9 -17 5 0 12 -11 15 -25 4 -14 10 -25 15
-25 14 0 0 48 -20 66 -17 16 -19 16 -19 1z"/>
<path d="M1932 4073 c-44 -65 -87 -167 -77 -183 3 -5 1 -12 -5 -15 -6 -4 -8
-15 -5 -25 3 -11 0 -20 -7 -23 -7 -2 0 -3 16 -1 16 2 41 4 56 4 36 0 77 35 62
53 -8 9 -8 17 -2 23 12 12 1 194 -11 194 -4 0 -16 -12 -27 -27z"/>
<path d="M4820 4080 c0 -5 5 -10 10 -10 6 0 10 5 10 10 0 6 -4 10 -10 10 -5 0
-10 -4 -10 -10z"/>
<path d="M4250 4060 c0 -24 15 -27 24 -4 9 22 8 24 -9 24 -8 0 -15 -9 -15 -20z"/>
<path d="M4628 4073 c7 -3 16 -2 19 1 4 3 -2 6 -13 5 -11 0 -14 -3 -6 -6z"/>
<path d="M1397 4053 c-12 -11 -8 -23 8 -23 8 0 15 -6 15 -13 0 -8 7 -14 15
-14 18 0 19 16 1 40 -14 18 -28 22 -39 10z"/>
<path d="M4003 4053 c-24 -9 -13 -24 15 -21 15 2 26 8 25 13 -2 12 -23 16 -40
8z"/>
<path d="M3905 4031 c-3 -5 -1 -12 5 -16 5 -3 10 1 10 9 0 18 -6 21 -15 7z"/>
<path d="M1336 3999 c-17 -18 -35 -29 -45 -26 -9 2 -22 -2 -29 -10 -12 -12 -8
-17 11 -14 4 0 7 -6 7 -14 0 -8 4 -15 9 -15 5 0 23 -12 40 -26 35 -29 37 -27
44 53 2 33 0 54 -7 57 -7 3 -6 5 2 5 6 1 12 6 12 11 0 18 -16 10 -44 -21z"/>
<path d="M3610 3980 c0 -5 5 -10 11 -10 5 0 7 5 4 10 -3 6 -8 10 -11 10 -2 0
-4 -4 -4 -10z"/>
<path d="M1490 3960 c-12 -8 -11 -10 8 -10 12 0 22 5 22 10 0 13 -11 13 -30 0z"/>
<path d="M2150 3941 c0 -8 50 -34 56 -29 1 2 -11 11 -27 20 -16 9 -29 14 -29
9z"/>
<path d="M1435 3930 c-3 -5 3 -10 15 -10 12 0 18 5 15 10 -3 6 -10 10 -15 10
-5 0 -12 -4 -15 -10z"/>
<path d="M2975 3919 c-4 -6 -5 -12 -2 -15 2 -3 7 2 10 11 7 17 1 20 -8 4z"/>
<path d="M3475 3910 c3 -5 8 -10 11 -10 2 0 4 5 4 10 0 6 -5 10 -11 10 -5 0
-7 -4 -4 -10z"/>
<path d="M1120 3864 c0 -31 -3 -35 -20 -29 -11 4 -20 2 -20 -4 0 -6 -18 -19
-40 -28 -46 -20 -54 -39 -12 -29 15 4 75 14 134 23 121 18 200 9 233 -27 10
-11 22 -20 26 -20 14 0 3 30 -17 45 -16 12 -16 14 -3 15 9 0 22 -7 29 -15 14
-16 30 -11 30 9 0 22 -54 40 -76 26 -16 -10 -32 -5 -99 31 -44 24 -74 36 -67
27 11 -13 9 -17 -13 -22 -31 -8 -46 0 -38 19 4 11 -2 15 -21 15 -23 0 -26 -4
-26 -36z"/>
<path d="M1434 3884 c3 -9 6 -18 6 -20 0 -2 7 -4 15 -4 20 0 19 26 -1 34 -24
9 -27 8 -20 -10z"/>
<path d="M2248 3893 c7 -3 16 -2 19 1 4 3 -2 6 -13 5 -11 0 -14 -3 -6 -6z"/>
<path d="M491 3844 c0 -11 3 -14 6 -6 3 7 2 16 -1 19 -3 4 -6 -2 -5 -13z"/>
<path d="M1766 3823 c-6 -14 -5 -15 5 -6 7 7 10 15 7 18 -3 3 -9 -2 -12 -12z"/>
<path d="M400 3800 c-4 -61 1 -144 11 -177 9 -27 16 -33 40 -33 30 0 35 8 20
38 -36 72 -56 123 -61 162 -7 44 -7 44 -10 10z"/>
<path d="M436 3815 c4 -8 8 -15 10 -15 2 0 4 7 4 15 0 8 -4 15 -10 15 -5 0 -7
-7 -4 -15z"/>
<path d="M977 3813 c-13 -13 -7 -21 13 -16 11 3 20 9 20 14 0 10 -24 12 -33 2z"/>
<path d="M903 3762 c-30 -30 -29 -34 5 -26 35 9 34 8 25 30 -8 18 -9 18 -30
-4z"/>
<path d="M2190 3779 c0 -5 5 -7 10 -4 6 3 10 8 10 11 0 2 -4 4 -10 4 -5 0 -10
-5 -10 -11z"/>
<path d="M960 3765 c0 -9 6 -12 15 -9 8 4 15 10 15 15 0 5 -7 9 -15 9 -8 0
-15 -7 -15 -15z"/>
<path d="M1038 3758 c-43 -11 -78 -24 -78 -28 0 -5 19 -11 43 -15 23 -4 75
-15 116 -25 61 -15 81 -26 117 -61 30 -30 45 -53 49 -81 6 -33 13 -42 41 -54
19 -8 34 -20 34 -28 0 -11 -8 -12 -42 -3 -36 9 -43 16 -62 59 -14 34 -26 48
-40 49 -12 0 -15 3 -8 6 39 16 -33 66 -120 84 -29 6 -70 14 -90 19 l-37 7 -7
-42 c-3 -24 -3 -56 0 -72 7 -29 7 -29 78 -29 59 1 71 -2 73 -16 4 -22 -21 -31
-46 -17 -11 5 -28 8 -37 6 -16 -4 -16 -5 1 -6 24 -1 22 -21 -2 -21 -11 0 -23
5 -26 10 -3 6 -13 10 -21 10 -8 0 -14 -4 -14 -10 0 -5 6 -10 14 -10 7 0 25 -6
39 -13 20 -11 23 -17 15 -25 -9 -9 -5 -12 16 -12 25 0 27 -2 16 -15 -10 -12
-15 -13 -20 -4 -9 13 -30 4 -30 -13 0 -6 -11 -21 -25 -34 -14 -13 -25 -19 -25
-14 0 8 -96 -13 -107 -23 -10 -10 69 -29 182 -43 166 -20 302 -35 312 -33 4 1
31 0 58 -1 46 -2 48 -2 20 -11 -16 -4 -41 -6 -55 -3 -24 5 -24 5 -6 -10 25
-20 18 -20 -27 -1 -20 8 -58 15 -84 15 -26 0 -66 5 -88 10 -22 5 -78 12 -125
15 -47 3 -96 7 -110 9 -14 2 -19 1 -12 -1 7 -3 10 -8 7 -13 -6 -9 52 -34 105
-45 19 -4 40 -11 45 -15 26 -19 155 -54 203 -54 51 0 52 -1 26 -14 -22 -12
-37 -12 -88 -2 -34 7 -79 21 -100 31 -45 22 -66 24 -66 8 0 -6 7 -8 17 -5 10
4 14 4 11 0 -9 -8 30 -40 57 -46 11 -2 19 -10 17 -17 -4 -20 16 -39 62 -60 66
-29 89 -62 94 -130 4 -53 7 -60 28 -65 23 -6 34 -26 14 -26 -5 0 -10 5 -10 10
0 6 -9 10 -21 10 -15 0 -20 -6 -18 -22 1 -13 -5 -40 -14 -62 -9 -21 -17 -40
-17 -41 0 -1 14 -5 30 -8 17 -4 30 -13 30 -21 0 -8 6 -16 13 -19 7 -2 8 -8 3
-13 -5 -5 -11 -4 -13 4 -3 7 -18 20 -35 28 -24 13 -32 13 -38 3 -10 -14 -1
-41 10 -34 4 3 11 -2 14 -11 3 -8 2 -12 -4 -9 -11 7 -12 -17 -1 -54 l7 -24 16
25 c13 20 23 25 39 21 14 -4 20 -2 16 5 -5 7 8 10 38 10 25 -1 45 -5 45 -10 0
-4 -7 -8 -15 -8 -8 0 -15 -4 -15 -9 0 -5 7 -11 15 -15 8 -3 15 -10 15 -17 0
-6 -7 -9 -15 -5 -19 7 -19 -13 -2 -39 20 -29 27 -54 18 -59 -5 -3 -17 16 -26
42 -25 63 -39 76 -72 65 -43 -15 -46 -43 -8 -88 26 -29 41 -38 64 -38 23 0 31
-5 31 -18 0 -21 24 -31 39 -16 6 6 11 9 12 7 9 -60 10 -61 26 -52 6 4 17 45
23 92 10 76 16 90 53 138 23 29 52 68 63 86 12 18 46 54 75 81 30 26 53 54 51
61 -2 8 3 11 11 9 7 -3 24 3 37 15 13 11 37 20 54 20 43 0 60 13 52 38 -14 44
-186 252 -208 252 -6 0 -9 3 -6 6 13 13 49 -20 123 -111 43 -52 80 -94 82 -92
4 5 -23 126 -37 162 -5 14 -21 105 -36 201 -14 96 -32 205 -41 242 -34 150
-41 176 -42 151 -1 -16 -14 -37 -36 -56 -19 -17 -35 -38 -35 -46 0 -19 -45
-30 -69 -18 -10 6 -21 7 -25 4 -3 -3 -6 -2 -6 4 0 6 -13 13 -30 17 -21 4 -30
11 -30 26 0 13 -7 20 -19 20 -13 0 -17 6 -14 23 6 31 -21 66 -38 50 -11 -11
-10 -13 4 -13 9 0 17 -5 17 -11 0 -7 -11 -9 -30 -6 -17 4 -32 2 -36 -5 -5 -8
-2 -9 9 -5 10 3 17 2 17 -4 0 -5 12 -7 28 -4 27 6 27 6 -3 -8 -17 -8 -39 -11
-50 -7 -11 4 -27 5 -35 2 -12 -3 -12 -2 -3 8 9 10 5 21 -20 51 l-32 39 -105
-1 c-71 -1 -130 -8 -182 -21z m482 -128 c0 -5 -7 -10 -16 -10 -8 0 -12 5 -9
10 3 6 10 10 16 10 5 0 9 -4 9 -10z m-332 -38 c2 -7 -3 -12 -12 -12 -9 0 -16
7 -16 16 0 17 22 14 28 -4z m292 -42 c0 -5 -2 -10 -4 -10 -3 0 -8 5 -11 10 -3
6 -1 10 4 10 6 0 11 -4 11 -10z m-325 -20 c3 -5 1 -10 -4 -10 -6 0 -11 5 -11
10 0 6 2 10 4 10 3 0 8 -4 11 -10z m-65 -60 c0 -5 -9 -10 -21 -10 -11 0 -17 5
-14 10 3 6 13 10 21 10 8 0 14 -4 14 -10z m-145 -140 c18 -8 18 -9 -5 -8 -14
0 -36 4 -50 8 -24 8 -24 8 5 8 17 0 39 -3 50 -8z m580 -90 c7 -12 -22 -12 -50
0 -17 7 -15 9 12 9 17 1 35 -3 38 -9z m-338 -6 c-3 -3 -12 -4 -19 -1 -8 3 -5
6 6 6 11 1 17 -2 13 -5z m383 -14 c8 -5 11 -10 5 -10 -5 0 -17 5 -25 10 -8 5
-10 10 -5 10 6 0 17 -5 25 -10z m-125 -10 c-3 -5 -14 -10 -23 -9 -14 0 -13 2
3 9 27 11 27 11 20 0z m-265 -106 c0 -8 -5 -12 -10 -9 -6 4 -8 11 -5 16 9 14
15 11 15 -7z m307 -374 c32 -66 38 -103 8 -45 -15 28 -33 57 -41 66 -17 19
-18 32 -1 27 6 -2 22 -24 34 -48z m40 -122 c-3 -8 -6 -5 -6 6 -1 11 2 17 5 13
3 -3 4 -12 1 -19z"/>
<path d="M2228 3753 c7 -3 16 -2 19 1 4 3 -2 6 -13 5 -11 0 -14 -3 -6 -6z"/>
<path d="M365 3730 c-3 -10 -1 -29 5 -40 15 -27 24 -19 14 12 -4 13 -7 29 -6
36 4 19 -6 14 -13 -8z"/>
<path d="M1361 3746 c2 -2 15 -9 29 -15 24 -11 24 -11 6 3 -16 13 -49 24 -35
12z"/>
<path d="M6835 3721 c-97 -59 -170 -215 -159 -339 4 -52 39 -127 67 -145 56
-36 142 -26 213 25 51 36 114 123 114 156 0 12 5 22 10 22 6 0 10 -5 10 -12 0
-9 3 -9 12 0 15 15 32 16 23 2 -3 -5 -1 -10 5 -10 7 0 9 7 6 16 -3 9 -6 21 -6
27 0 7 -5 4 -11 -5 -14 -25 -29 -22 -29 6 0 13 -7 27 -16 30 -24 9 -54 7 -54
-4 0 -5 14 -10 30 -10 35 0 40 -17 7 -29 -13 -5 -36 -27 -51 -50 -37 -53 -84
-88 -139 -103 -39 -10 -49 -9 -70 5 -47 31 -39 55 49 142 44 44 89 95 99 113
11 17 22 32 25 32 3 0 6 23 8 51 3 42 -1 56 -19 75 -28 30 -81 32 -124 5z m69
-67 c3 -9 -1 -30 -9 -48 -20 -41 -133 -161 -143 -151 -4 4 -1 10 6 12 6 3 10
9 7 13 -3 5 4 35 15 66 31 89 106 154 124 108z"/>
<path d="M4740 3704 c0 -8 5 -12 10 -9 6 3 10 10 10 16 0 5 -4 9 -10 9 -5 0
-10 -7 -10 -16z"/>
<path d="M330 3694 c0 -23 27 -94 36 -94 3 0 2 10 -2 23 -4 12 -8 29 -9 37 0
8 -6 24 -13 35 -11 20 -11 20 -12 -1z"/>
<path d="M823 3693 c-24 -8 -43 -18 -43 -23 0 -10 107 -29 131 -23 28 8 25 49
-3 57 -30 8 -36 7 -85 -11z"/>
<path d="M480 3666 c0 -21 31 -76 42 -76 9 0 -18 70 -33 85 -6 5 -9 2 -9 -9z"/>
<path d="M6298 3673 c7 -3 16 -2 19 1 4 3 -2 6 -13 5 -11 0 -14 -3 -6 -6z"/>
<path d="M1600 3634 c0 -8 5 -12 10 -9 6 3 10 10 10 16 0 5 -4 9 -10 9 -5 0
-10 -7 -10 -16z"/>
<path d="M756 3628 c3 -4 23 -13 45 -19 22 -7 38 -17 36 -23 -3 -7 16 -23 42
-38 l47 -26 -2 27 c-1 14 -2 40 -3 56 l-1 30 -84 0 c-46 0 -82 -3 -80 -7z"/>
<path d="M380 3625 c0 -5 5 -17 10 -25 5 -8 10 -10 10 -5 0 6 -5 17 -10 25 -5
8 -10 11 -10 5z"/>
<path d="M7223 3623 c-18 -7 -16 -40 3 -47 23 -9 34 -7 34 4 0 5 -7 7 -15 4
-10 -4 -15 0 -15 16 0 13 4 19 12 14 7 -4 8 -3 4 4 -4 7 -8 12 -9 11 -1 0 -8
-3 -14 -6z"/>
<path d="M730 3600 c0 -5 15 -10 33 -9 27 0 29 2 12 9 -28 12 -45 12 -45 0z"/>
<path d="M4603 3583 c-16 -24 -18 -54 -18 -278 1 -146 6 -280 13 -322 24 -143
52 -187 93 -146 l21 21 -21 91 c-36 150 -46 292 -33 449 15 175 15 178 -4 196
-22 22 -31 20 -51 -11z"/>
<path d="M6347 3582 c-29 -30 -71 -124 -82 -183 -4 -20 -17 -54 -30 -74 -21
-35 -23 -37 -33 -19 -6 11 -17 51 -25 90 -47 230 -142 211 -241 -48 -53 -136
-66 -136 -66 1 0 138 -6 170 -37 184 -41 19 -46 1 -44 -159 2 -155 10 -219 35
-278 14 -34 16 -35 46 -24 35 12 45 31 105 191 20 53 41 97 46 97 5 0 8 3 8 8
-3 18 3 31 26 56 18 19 27 23 30 14 18 -49 44 -140 49 -174 11 -63 40 -104 74
-104 34 0 53 34 102 180 36 106 52 141 73 158 21 18 31 1 62 -103 34 -113 65
-169 105 -185 25 -10 34 -10 55 4 36 24 34 61 -5 74 -23 8 -36 25 -59 76 -16
35 -32 79 -36 97 -11 51 -44 123 -62 137 -28 20 -67 14 -96 -16z"/>
<path d="M7030 3590 c0 -5 5 -10 10 -10 6 0 10 5 10 10 0 6 -4 10 -10 10 -5 0
-10 -4 -10 -10z"/>
<path d="M438 3573 c-10 -2 -18 -9 -18 -14 0 -18 73 -90 87 -85 8 3 12 2 8 -3
-3 -5 1 -11 7 -14 10 -3 9 -8 -2 -22 -8 -10 -9 -16 -3 -11 18 10 53 -12 53
-34 0 -11 5 -20 10 -20 15 0 14 4 -37 111 -49 102 -53 106 -105 92z"/>
<path d="M527 3559 c4 -13 8 -18 11 -10 2 7 -1 18 -6 23 -8 8 -9 4 -5 -13z"/>
<path d="M722 3558 c2 -13 10 -23 18 -23 8 0 16 10 18 23 3 17 -2 22 -18 22
-16 0 -21 -5 -18 -22z"/>
<path d="M7120 3570 c0 -5 5 -10 11 -10 5 0 7 5 4 10 -3 6 -8 10 -11 10 -2 0
-4 -4 -4 -10z"/>
<path d="M395 3560 c3 -5 8 -10 11 -10 2 0 4 5 4 10 0 6 -5 10 -11 10 -5 0 -7
-4 -4 -10z"/>
<path d="M770 3559 c0 -5 5 -7 10 -4 6 3 10 8 10 11 0 2 -4 4 -10 4 -5 0 -10
-5 -10 -11z"/>
<path d="M4261 3554 c0 -11 3 -14 6 -6 3 7 2 16 -1 19 -3 4 -6 -2 -5 -13z"/>
<path d="M7200 3545 c7 -19 6 -22 -11 -18 -11 3 -19 0 -19 -7 0 -7 6 -10 13
-7 8 3 20 1 28 -4 10 -6 10 -9 2 -9 -8 0 -13 -12 -12 -27 1 -17 3 -21 6 -10 7
26 20 20 27 -13 3 -16 10 -30 16 -30 14 0 13 67 -2 76 -8 5 -6 11 6 20 10 7
15 17 11 23 -10 17 -28 13 -21 -5 4 -10 1 -14 -6 -11 -7 2 -12 11 -12 20 1 8
-7 17 -17 20 -15 4 -16 1 -9 -18z"/>
<path d="M680 3555 c0 -5 5 -17 10 -25 5 -8 10 -10 10 -5 0 6 -5 17 -10 25 -5
8 -10 11 -10 5z"/>
<path d="M772 3529 c-19 -17 -31 -33 -28 -36 3 -3 12 2 21 11 21 20 20 21 20
-11 0 -16 -5 -34 -12 -41 -7 -7 -13 -20 -13 -29 0 -13 3 -13 15 -3 18 15 20
24 3 14 -7 -4 -8 -3 -4 4 5 8 13 8 32 0 23 -11 29 -9 60 25 20 21 32 42 28 48
-4 8 -14 -1 -25 -24 -15 -29 -23 -34 -41 -29 -18 5 -19 7 -6 10 15 3 54 50 46
56 -21 16 -54 36 -58 36 -3 0 -20 -14 -38 -31z"/>
<path d="M7121 3514 c0 -11 3 -14 6 -6 3 7 2 16 -1 19 -3 4 -6 -2 -5 -13z"/>
<path d="M5546 3504 c-8 -22 1 -31 16 -16 9 9 9 15 1 23 -7 7 -12 5 -17 -7z"/>
<path d="M7058 3513 c6 -2 18 -2 25 0 6 3 1 5 -13 5 -14 0 -19 -2 -12 -5z"/>
<path d="M2570 3494 c0 -8 5 -12 10 -9 6 4 8 11 5 16 -9 14 -15 11 -15 -7z"/>
<path d="M904 3478 c-16 -24 -12 -36 11 -34 23 1 27 18 8 37 -8 8 -13 7 -19
-3z"/>
<path d="M7155 3474 c17 -13 18 -16 5 -24 -17 -11 -17 -11 25 -16 25 -2 27 -1
12 7 -11 6 -16 17 -13 27 4 13 -1 17 -21 19 -27 1 -27 1 -8 -13z"/>
<path d="M581 3461 c-1 -21 54 -131 65 -131 7 0 -8 54 -16 60 -4 3 -17 25 -28
50 -16 36 -20 40 -21 21z"/>
<path d="M5435 3465 c-155 -54 -224 -376 -101 -470 41 -32 110 -34 166 -5 93
47 179 210 165 310 -11 75 -51 137 -107 166 -34 17 -71 17 -123 -1z m113 -87
c63 -68 53 -186 -23 -276 -55 -65 -117 -79 -150 -34 -16 22 -20 42 -20 112 1
75 4 92 30 140 17 30 41 60 55 67 39 20 84 16 108 -9z"/>
<path d="M5516 3227 c3 -10 9 -15 12 -12 3 3 0 11 -7 18 -10 9 -11 8 -5 -6z"/>
<path d="M5450 3196 c0 -19 37 -50 45 -37 3 6 -1 11 -10 11 -11 0 -15 5 -12
14 3 8 -1 17 -9 20 -8 3 -14 0 -14 -8z"/>
<path d="M316 3431 c-23 -19 -33 -32 -25 -36 6 -5 -10 -19 -42 -36 -29 -16
-60 -36 -69 -44 -9 -8 -19 -15 -22 -15 -7 0 -68 -51 -120 -102 l-38 -36 0
-132 0 -131 23 7 22 6 -22 -24 c-13 -13 -23 -32 -23 -41 0 -15 6 -14 40 8 50
32 56 31 63 -2 4 -20 1 -33 -12 -43 -13 -12 -16 -22 -10 -38 6 -15 5 -21 -1
-17 -6 3 -10 1 -10 -6 0 -7 -12 -27 -26 -46 -19 -25 -23 -37 -15 -47 7 -9 6
-19 -6 -35 -16 -23 -16 -24 21 -19 20 2 36 0 36 -4 0 -4 -7 -8 -15 -8 -14 0
-20 -13 -16 -34 1 -5 -3 -12 -9 -16 -6 -4 -13 -29 -15 -55 -2 -26 -9 -53 -15
-59 -5 -5 -10 -32 -10 -60 0 -47 1 -48 18 -33 10 10 22 14 26 10 4 -5 14 1 22
11 10 14 14 16 14 5 1 -10 4 -9 15 5 14 18 15 18 40 -2 26 -21 26 -21 46 -1
10 10 24 19 31 19 9 0 9 -3 0 -12 -16 -16 -15 -28 3 -28 20 0 20 -39 0 -46
-22 -9 -18 -27 5 -21 11 3 20 0 21 -6 0 -7 2 -21 4 -32 3 -13 -7 -30 -28 -49
-18 -16 -31 -34 -29 -39 1 -5 -4 -14 -11 -21 -18 -14 -29 -46 -17 -46 6 0 6
-9 0 -25 -5 -14 -7 -32 -4 -40 4 -8 1 -15 -6 -15 -10 0 -10 -3 0 -15 11 -13
16 -12 44 6 30 21 -36 -45 -141 -142 l-50 -45 -1 -247 0 -247 29 21 c16 11 29
17 29 13 0 -9 -41 -44 -52 -44 -4 0 -8 -18 -8 -40 0 -22 5 -40 10 -40 6 0 10
5 10 10 0 6 4 10 9 10 8 0 51 34 92 73 11 9 23 17 27 17 4 0 25 16 46 35 44
40 56 43 56 14 0 -11 -4 -18 -8 -15 -5 3 -28 -15 -52 -39 -24 -25 -39 -45 -32
-45 19 0 14 -15 -13 -44 -14 -15 -25 -31 -25 -35 0 -4 -10 -7 -22 -7 -13 1
-23 -5 -23 -12 0 -7 -5 -16 -10 -20 -6 -4 -23 -28 -37 -53 l-27 -46 -1 -531 0
-532 105 0 105 0 49 50 c27 28 52 50 55 50 3 0 38 33 78 73 40 40 100 90 133
112 33 21 61 42 63 46 5 13 94 74 130 90 17 7 32 16 32 19 0 3 16 14 35 24 32
17 37 18 52 4 12 -10 49 -18 104 -22 74 -6 96 -4 145 14 65 22 94 25 94 9 0
-20 -34 -69 -48 -69 -17 0 -78 -36 -106 -62 -18 -16 -18 -18 -3 -18 9 0 17 -7
17 -15 0 -20 55 -20 111 1 24 9 70 17 102 19 l57 2 -15 -23 c-8 -13 -15 -32
-15 -44 0 -16 -7 -20 -32 -20 -31 -1 -32 -1 -14 -15 11 -8 39 -15 63 -15 24 0
43 -4 43 -8 0 -17 -47 -52 -63 -47 -10 4 -20 -1 -27 -14 -6 -12 -15 -21 -20
-21 -6 0 -29 -8 -53 -19 -23 -10 -89 -37 -147 -59 l-105 -41 1067 -1 1067 0
12 43 c8 32 8 50 -1 75 -9 26 -9 36 0 47 16 19 37 19 56 0 9 -8 19 -15 22 -15
15 0 33 61 27 90 -7 31 10 44 21 15 4 -8 10 -15 15 -15 11 0 56 -42 88 -83 14
-19 44 -56 65 -81 29 -35 36 -50 28 -58 -9 -9 -18 -8 -36 1 -24 13 -46 8 -46
-10 0 -5 59 -9 140 -9 l139 0 -6 33 c-3 17 -16 50 -28 72 -46 83 -38 128 22
118 33 -5 53 -38 53 -87 1 -20 1 -20 15 -2 18 24 80 15 96 -15 9 -18 6 -27
-18 -57 -16 -21 -33 -43 -37 -49 -6 -10 45 -13 238 -13 265 0 267 0 227 51
-30 39 -45 97 -30 115 10 13 10 17 -2 25 -8 5 -17 9 -21 9 -3 0 -20 30 -38 68
-17 37 -39 83 -48 102 -20 39 -18 78 4 87 21 8 59 -31 72 -75 7 -20 21 -68 33
-107 11 -38 22 -76 24 -82 3 -7 20 -13 40 -13 32 0 35 3 35 28 0 15 -9 78 -21
140 -17 88 -19 116 -10 125 10 9 20 3 47 -25 19 -21 38 -38 43 -38 5 0 15 -26
22 -57 10 -53 39 -122 73 -181 7 -13 41 -53 75 -89 33 -36 61 -69 61 -74 0 -5
86 -9 190 -9 135 0 190 3 190 11 0 7 -18 57 -41 113 -29 74 -40 113 -38 146 3
58 -6 85 -36 104 -14 9 -25 21 -25 27 0 6 -14 45 -30 87 -25 62 -43 89 -93
138 -80 77 -136 185 -144 275 -4 38 -15 78 -29 103 -23 40 -33 116 -15 116 13
0 61 -51 61 -66 0 -8 7 -14 15 -14 12 0 13 4 6 18 -8 15 -9 43 -2 124 2 15 39
-5 51 -27 13 -24 38 -40 48 -30 3 3 0 16 -6 29 -15 34 -4 106 17 106 19 0 93
-81 135 -148 29 -46 47 -58 72 -48 14 5 13 10 -5 39 -19 32 -57 184 -48 194 9
9 61 -89 66 -126 5 -27 11 -36 26 -36 17 0 19 6 17 34 -2 19 -1 50 3 69 6 32
8 34 37 28 17 -3 36 -1 43 4 10 8 18 -1 35 -35 12 -25 26 -45 31 -45 15 0 21
27 10 47 -7 14 -5 27 10 50 18 29 23 31 45 21 13 -6 24 -15 24 -20 0 -4 5 -8
11 -8 17 0 -1 42 -32 75 -22 23 -29 41 -29 69 l0 38 25 -16 c31 -20 35 -20 33
2 -5 62 18 70 47 15 28 -53 77 -123 87 -123 4 0 8 6 8 14 0 18 -75 147 -92
157 -7 4 -10 11 -6 14 13 13 54 -8 89 -47 42 -45 73 -44 63 1 -4 14 -12 33
-19 41 -23 29 -25 50 -5 70 11 11 25 20 30 20 11 0 14 20 11 64 -2 16 2 26 7
22 6 -3 12 -1 14 6 3 7 20 -11 39 -39 19 -29 39 -53 46 -53 16 0 26 17 17 31
-4 8 -9 7 -15 -2 -11 -18 -15 -11 -23 40 l-7 44 21 -24 21 -24 -6 25 c-6 22
-4 21 19 -9 14 -19 26 -38 26 -42 0 -4 16 -13 35 -20 28 -11 35 -18 35 -40 0
-15 7 -32 15 -39 8 -7 15 -17 15 -23 0 -6 7 -19 16 -29 13 -14 14 -21 5 -32
-10 -12 -7 -22 11 -51 20 -32 27 -36 55 -31 29 4 34 2 40 -22 7 -30 9 -31 75
-84 82 -67 124 -112 146 -158 45 -95 99 -132 136 -94 20 19 30 13 61 -37 16
-24 25 -53 25 -78 0 -44 10 -55 39 -46 18 5 18 8 5 33 -19 36 -18 69 3 80 15
9 14 11 -4 20 -11 6 -30 34 -42 63 -12 28 -40 70 -60 92 -21 23 -42 56 -45 72
-4 17 -28 52 -53 80 -39 42 -46 47 -54 32 -11 -19 -18 -21 -39 -7 -11 7 -12
12 -4 17 19 13 26 67 11 87 -12 17 -15 17 -29 2 -9 -9 -24 -16 -32 -16 -9 0
-16 -4 -16 -9 0 -12 29 -41 41 -41 10 0 12 -43 3 -78 -10 -35 -34 -23 -66 32
-31 52 -60 81 -95 96 -13 5 -23 18 -23 29 0 11 -11 31 -25 45 -14 14 -28 38
-31 54 -4 18 -16 32 -35 41 -16 7 -29 19 -29 28 0 8 -9 17 -19 20 -14 3 -20
16 -24 46 -2 23 0 49 4 57 7 13 8 13 9 -1 0 -8 14 -28 31 -45 17 -16 48 -52
69 -80 27 -35 48 -53 68 -57 18 -4 41 -20 57 -42 15 -19 36 -35 47 -35 11 0
28 -5 40 -11 24 -13 35 -5 19 15 -7 8 -10 20 -6 25 3 6 -7 23 -22 38 l-29 28
45 2 c31 1 51 8 61 20 15 19 79 53 98 53 6 0 14 -5 18 -12 5 -8 1 -9 -12 -5
-18 7 -18 6 -1 -7 9 -7 17 -20 17 -29 0 -9 5 -19 10 -22 6 -4 9 -18 8 -33 -1
-15 6 -38 15 -52 19 -29 48 -156 40 -176 -3 -7 5 -27 16 -43 12 -16 28 -48 36
-71 8 -23 30 -67 49 -98 24 -39 34 -66 32 -87 -3 -31 26 -75 49 -75 25 0 45
-37 45 -83 0 -25 7 -62 15 -82 8 -19 21 -50 29 -68 11 -28 25 -38 85 -61 56
-22 80 -26 111 -21 42 7 59 0 108 -43 20 -17 27 -19 43 -9 17 10 22 8 42 -16
30 -38 77 -35 91 4 14 41 2 59 -39 59 -30 0 -35 3 -35 23 0 13 -9 32 -20 42
-22 20 -25 46 -10 76 9 16 22 19 85 19 41 0 86 -5 100 -12 21 -10 85 -95 85
-115 0 -14 97 -132 122 -147 42 -25 48 -21 48 39 0 68 -44 195 -100 285 -5 8
-21 43 -36 77 -21 49 -25 73 -21 108 6 55 8 58 48 57 38 -1 69 -29 109 -96 33
-58 92 -126 107 -126 6 0 13 7 17 15 3 8 1 15 -4 15 -6 0 -10 8 -10 17 0 9
-18 43 -41 76 -49 69 -63 152 -36 206 9 18 11 33 6 37 -5 3 -7 10 -3 15 3 6
14 1 24 -11 9 -11 26 -20 37 -20 22 0 48 45 36 63 -4 6 -6 26 -5 45 3 41 -10
59 -48 67 -21 5 -36 19 -55 52 -24 43 -24 47 -8 65 16 18 17 18 40 -4 13 -12
23 -27 23 -34 0 -23 51 -74 75 -74 27 0 85 -51 85 -74 0 -9 -7 -16 -15 -16 -8
0 -22 -11 -31 -25 -14 -21 -14 -28 -3 -41 7 -9 14 -26 16 -37 3 -21 23 -42 78
-81 15 -10 38 -42 52 -70 27 -56 36 -73 72 -130 14 -21 28 -61 32 -87 6 -36
17 -57 42 -82 18 -19 39 -48 46 -65 8 -18 17 -32 22 -32 5 0 9 -12 9 -27 0
-31 29 -100 51 -123 8 -8 24 -44 37 -79 15 -43 36 -77 61 -103 71 -69 83 -42
20 42 -38 51 -97 166 -128 250 -7 19 -25 69 -40 112 -15 42 -35 84 -44 93 -10
9 -17 25 -17 35 0 11 -12 31 -26 45 -22 22 -26 36 -28 95 -2 39 -6 73 -9 77
-4 3 -7 10 -7 15 0 17 30 6 87 -32 36 -23 84 -45 121 -54 33 -8 75 -21 93 -30
18 -9 34 -16 36 -16 1 0 3 55 3 123 0 82 -4 127 -12 135 -15 15 -15 109 0 124
8 8 12 67 12 195 l0 183 -22 0 c-29 0 -96 39 -143 82 -77 71 -100 94 -111 113
-11 19 -12 19 -48 3 -49 -24 -92 -23 -113 2 -68 79 -94 101 -110 92 -17 -10
-83 21 -83 39 0 5 14 32 32 60 30 50 31 52 15 79 -10 16 -17 37 -17 47 0 11
-11 23 -29 30 -24 9 -32 8 -48 -9 -18 -17 -22 -18 -56 -3 -20 8 -47 15 -61 15
-42 0 -49 72 -12 144 17 33 20 49 12 54 -22 14 -36 61 -26 88 6 14 8 30 4 35
-3 5 0 9 5 9 6 0 11 7 11 15 0 8 -5 15 -11 15 -5 0 -7 5 -3 11 4 8 0 9 -15 4
-12 -4 -21 -2 -21 4 0 6 7 11 15 11 28 0 15 15 -15 17 -18 1 -28 -2 -25 -7 4
-6 4 -18 0 -29 -4 -15 -14 -17 -58 -15 -52 4 -52 4 -22 -11 17 -8 23 -15 15
-15 -72 -6 -67 -10 -56 42 6 27 14 48 18 48 5 0 8 -8 6 -17 -2 -10 4 -19 15
-21 9 -2 17 1 17 7 0 6 -5 11 -11 11 -20 0 2 20 24 21 20 1 20 2 -3 9 l-25 7
28 12 c16 6 32 9 37 6 4 -3 11 2 14 11 5 13 1 14 -25 9 l-31 -7 4 41 c2 23 1
41 -3 41 -14 0 -15 59 -1 65 12 4 12 8 2 20 -14 17 -8 31 9 21 6 -4 8 -24 5
-50 -5 -36 -3 -46 13 -57 11 -8 22 -21 25 -29 3 -10 6 -8 10 8 4 12 2 20 -2
17 -5 -3 -11 -1 -14 4 -4 5 6 11 21 13 22 2 29 9 31 31 2 16 -1 27 -9 27 -8 0
-5 7 6 20 10 11 26 20 37 20 20 0 25 16 6 23 -7 2 -10 8 -6 12 4 4 15 2 23 -5
11 -9 13 -16 5 -24 -7 -7 -3 -14 12 -23 13 -7 18 -12 12 -13 -6 0 -9 -10 -7
-24 5 -22 8 -23 24 -13 11 7 17 18 14 26 -3 9 0 11 10 7 9 -3 15 0 15 8 0 8
-7 16 -15 20 -8 3 -15 17 -15 32 0 19 4 25 15 21 8 -4 17 -2 20 4 4 5 1 8 -7
7 -8 -2 -12 5 -11 20 2 12 -2 22 -7 22 -6 0 -10 -9 -10 -21 0 -26 -15 -17 -34
21 -13 28 -6 44 9 19 8 -13 30 -6 31 9 1 7 2 17 3 23 0 5 6 7 13 3 8 -5 9 0 5
17 -4 13 -7 30 -7 38 0 7 -6 11 -14 8 -8 -3 -16 2 -18 11 -6 22 -54 27 -62 7
-3 -9 -19 -15 -38 -15 -47 0 -66 -14 -52 -38 10 -15 8 -18 -13 -20 -18 -1 -24
2 -20 12 7 18 -12 36 -36 36 -15 0 -17 -3 -8 -13 14 -18 2 -30 -16 -15 -21 17
-26 2 -8 -26 9 -14 13 -31 9 -37 -5 -8 -2 -10 9 -6 9 3 18 -1 21 -9 8 -22 8
-24 -7 -18 -10 4 -13 -7 -10 -43 3 -45 2 -47 -10 -23 -8 14 -13 35 -12 48 2
17 -3 22 -23 22 -20 0 -23 3 -14 12 16 16 15 31 -2 25 -8 -3 -20 1 -26 9 -16
19 -36 18 -44 -2 -8 -22 -8 -24 7 -19 17 6 56 -26 39 -32 -6 -3 -12 -11 -12
-18 0 -13 -21 -25 -43 -25 -7 0 -6 5 3 11 12 9 12 10 -3 5 -10 -3 -21 -6 -23
-6 -2 0 -4 -4 -4 -10 0 -5 8 -10 18 -10 11 0 18 -7 18 -20 0 -11 -4 -20 -8
-20 -4 0 -8 6 -8 13 0 9 -3 8 -9 -2 -5 -7 -14 -10 -20 -7 -6 4 -11 2 -11 -3 0
-17 -42 -6 -57 15 -12 16 -15 17 -23 4 -12 -19 -12 -27 0 -35 6 -4 7 1 3 11
-4 12 -2 15 8 12 8 -3 14 -17 13 -34 0 -16 1 -20 3 -10 4 16 7 17 14 5 6 -10
9 -10 9 -1 0 18 47 15 54 -4 9 -24 7 -41 -4 -24 -15 24 -22 5 -9 -26 6 -16 11
-41 11 -56 -1 -18 5 -28 14 -28 8 0 14 5 14 10 0 6 -3 10 -7 10 -5 0 -8 10 -8
23 0 17 6 22 29 24 27 2 28 2 12 -16 -13 -14 -14 -20 -5 -23 8 -3 9 -9 4 -18
-5 -8 -10 -27 -12 -44 -4 -38 -12 -45 -27 -24 -7 10 -17 13 -25 9 -9 -6 -5
-13 14 -25 21 -14 24 -20 14 -32 -8 -10 -8 -14 0 -14 6 0 11 -5 11 -11 0 -6
-7 -9 -14 -6 -11 4 -13 1 -9 -11 6 -15 5 -15 -10 -3 -14 11 -20 11 -32 1 -22
-18 -7 -33 28 -26 19 4 28 3 22 -3 -17 -15 -55 -23 -55 -12 0 6 -14 11 -31 11
-26 0 -29 2 -20 14 9 11 9 16 1 21 -18 11 -33 -11 -32 -44 0 -23 -4 -30 -24
-35 -19 -5 -25 -13 -23 -29 1 -12 -1 -29 -4 -37 -3 -8 -7 -22 -10 -30 -2 -10
-9 -4 -21 18 -10 19 -21 30 -28 26 -8 -5 -9 -2 -5 9 3 10 2 17 -3 17 -13 0
-13 -37 0 -45 6 -4 8 -15 5 -25 -3 -10 0 -22 7 -26 9 -6 5 -10 -12 -15 -55
-15 -63 -12 -56 24 4 23 3 28 -4 17 -8 -11 -10 -3 -8 29 2 26 -2 46 -8 48 -7
2 -10 -5 -7 -21 3 -14 2 -41 -1 -60 -5 -28 -12 -35 -36 -38 -17 -3 -30 -1 -30
4 0 4 -7 8 -15 8 -18 0 -19 -12 -3 -28 9 -9 9 -12 0 -12 -7 0 -12 5 -12 10 0
17 -25 11 -37 -10 -9 -14 -23 -19 -50 -18 -21 1 -39 -4 -41 -11 -3 -9 -8 -9
-17 -1 -7 6 -25 8 -40 4 -20 -5 -23 -9 -13 -15 9 -6 7 -9 -10 -9 -20 0 -21 3
-12 20 15 27 -4 25 -24 -2 -11 -14 -15 -17 -12 -7 2 9 -1 25 -9 35 -7 11 -15
28 -18 39 -4 18 -5 17 -6 -3 0 -13 4 -32 9 -43 9 -16 6 -24 -16 -44 -23 -21
-34 -24 -86 -21 -44 3 -58 0 -54 -9 4 -12 -117 -36 -214 -41 -25 -1 -45 -3
-45 -4 0 -2 -11 -4 -25 -5 -14 -2 -36 -6 -50 -9 -14 -4 -58 -11 -99 -17 -40
-6 -85 -15 -100 -20 -14 -6 -55 -14 -91 -19 -36 -4 -112 -15 -169 -24 -57 -9
-106 -14 -109 -11 -3 2 -12 0 -22 -5 -9 -5 -102 -25 -206 -45 -104 -21 -216
-43 -249 -50 -97 -21 -214 -43 -300 -55 -44 -6 -123 -22 -175 -35 -52 -12
-160 -35 -240 -49 -80 -15 -185 -36 -235 -46 -49 -10 -151 -31 -225 -45 -74
-14 -136 -29 -138 -34 -1 -5 -13 -28 -25 -52 -34 -67 -69 -82 -192 -83 -57 -1
-106 -4 -110 -8 -4 -4 -20 6 -35 22 -26 27 -34 29 -97 29 -61 -1 -75 -5 -136
-41 -77 -46 -179 -78 -217 -67 -44 12 -81 9 -98 -8 -9 -9 -16 -19 -15 -22 1
-3 -1 -8 -4 -11 -3 -3 -3 12 0 34 l6 39 -42 -6 c-30 -4 -49 -14 -67 -36 -14
-16 -38 -34 -53 -40 -15 -6 -29 -16 -31 -23 -24 -89 -50 -158 -66 -176 -27
-29 -26 -32 14 -32 25 0 43 8 66 31 26 26 36 30 63 25 47 -9 65 10 82 83 20
84 39 114 29 46 -14 -96 -12 -107 19 -111 16 -1 35 -8 44 -15 12 -10 16 -10
24 2 7 11 9 9 9 -9 0 -21 4 -23 43 -21 23 1 77 -8 120 -19 85 -23 97 -28 97
-43 0 -20 29 -39 58 -39 28 0 103 -51 124 -84 7 -11 9 -8 12 15 0 7 10 17 21
23 11 6 22 14 25 18 12 16 126 88 139 88 11 0 9 -4 -5 -15 -10 -8 -14 -14 -9
-14 6 0 19 6 29 14 11 8 14 15 8 15 -7 0 -12 3 -12 8 0 8 82 62 112 74 10 4
18 12 18 18 0 5 5 10 11 10 7 0 9 -11 6 -28 -3 -15 -2 -34 3 -42 6 -9 5 -17
-3 -22 -9 -6 -8 -10 3 -17 12 -8 9 -14 -15 -36 -17 -14 -40 -28 -53 -32 -17
-4 -22 -11 -19 -24 4 -16 1 -18 -19 -13 -13 3 -24 2 -24 -3 0 -6 -11 -15 -25
-21 -14 -6 -25 -9 -25 -6 0 10 28 34 39 34 6 0 11 5 11 10 0 6 7 10 15 10 8 0
15 4 15 9 0 5 15 15 34 21 36 11 63 36 53 47 -4 3 -46 -21 -94 -54 -48 -33
-97 -63 -108 -67 -11 -4 -38 -22 -59 -41 -39 -34 -39 -35 -20 -56 16 -17 16
-22 4 -29 -13 -8 -13 -10 1 -10 24 0 92 57 77 64 -7 3 -1 4 15 1 27 -5 38 9
15 18 -7 3 -2 6 10 6 15 1 26 9 29 21 6 23 19 26 26 8 4 -10 8 -10 14 -2 4 6
18 14 31 18 12 4 22 14 22 22 0 8 7 14 15 14 8 0 32 9 52 20 21 11 32 20 25
20 -6 0 -12 5 -12 10 0 6 10 8 24 4 26 -6 69 22 59 39 -3 5 4 6 17 2 20 -6 21
-4 15 17 -7 22 -7 23 12 5 18 -16 21 -16 26 -2 4 8 2 15 -4 15 -6 0 -7 5 -3
11 3 6 17 8 30 5 17 -5 26 -2 30 9 4 8 12 15 20 15 8 0 14 5 14 10 0 13 27 13
33 0 3 -6 4 -5 3 2 -3 15 22 43 31 34 4 -3 2 -11 -4 -17 -6 -6 -9 -17 -6 -24
2 -7 -5 -16 -16 -20 -12 -3 -21 -10 -21 -14 0 -7 -43 -31 -56 -31 -3 0 -2 5 2
12 4 7 3 8 -5 4 -6 -4 -9 -11 -6 -15 8 -15 -33 -43 -53 -37 -14 5 -22 0 -30
-19 -6 -14 -15 -25 -20 -25 -14 0 -52 -36 -52 -50 0 -29 89 34 89 64 1 15 4
16 15 7 12 -10 20 -9 40 4 14 10 33 15 41 11 9 -3 18 1 21 9 4 8 12 15 20 15
8 0 14 5 14 10 0 6 11 10 25 10 26 0 34 14 13 24 -7 3 0 4 15 2 21 -3 27 0 23
11 -3 8 -1 11 4 8 5 -3 20 3 32 15 12 11 27 19 34 16 6 -2 22 9 35 25 31 37
59 41 35 4 -14 -22 -15 -25 -1 -25 8 0 15 5 15 11 0 6 9 9 19 6 13 -3 18 0 15
8 -3 7 8 20 26 29 32 15 32 15 26 -7 -3 -12 -6 -25 -6 -29 0 -5 -7 -8 -15 -8
-8 0 -15 -4 -15 -10 0 -5 7 -10 15 -10 8 0 15 4 15 9 0 12 29 41 41 41 17 0 9
-39 -11 -50 -26 -14 -26 -37 0 -45 11 -4 17 -11 14 -17 -4 -7 2 -7 17 -2 13 4
36 7 52 6 15 0 27 3 27 8 0 6 6 10 14 10 20 0 86 40 86 51 0 5 15 9 33 9 21 0
43 10 67 31 19 17 35 34 35 37 1 4 31 38 68 76 37 38 65 72 62 74 -3 3 -24
-13 -47 -36 -22 -23 -45 -42 -50 -42 -14 0 -9 20 6 26 22 8 28 34 12 50 -11
11 -16 11 -19 1 -4 -8 -6 -8 -6 -1 -1 7 11 26 26 42 24 28 28 30 39 14 19 -24
17 -34 -5 -27 -11 3 -23 0 -27 -6 -5 -8 -3 -9 6 -4 7 4 15 3 19 -3 4 -7 13 -5
26 5 14 11 16 17 7 20 -6 3 -12 11 -12 18 0 8 -11 26 -25 41 -30 32 -30 36 -5
59 18 16 20 16 26 1 5 -12 10 -14 20 -5 7 6 23 8 36 4 21 -7 21 -7 5 10 -10 9
-24 14 -32 11 -20 -7 -19 4 3 20 21 17 32 17 32 3 0 -7 8 -17 17 -24 18 -14
58 -2 78 22 14 16 70 30 61 14 -4 -6 -16 -11 -27 -11 -18 0 -23 -9 -20 -40 2
-12 0 -12 -7 -1 -8 11 -14 11 -33 1 -13 -7 -27 -17 -30 -22 -4 -6 -18 -11 -31
-11 -16 -1 -24 -7 -21 -14 6 -15 -9 -17 -23 -3 -5 5 -15 6 -22 1 -9 -5 -9 -11
3 -27 13 -18 14 -18 15 -1 0 10 5 15 11 11 6 -3 8 -17 5 -30 -4 -14 -2 -24 4
-24 9 0 14 17 13 48 -1 7 10 15 23 18 13 3 24 11 24 16 0 6 11 7 25 4 20 -5
23 -3 18 11 -5 12 -2 15 10 10 9 -3 19 -3 21 2 10 15 136 72 146 66 6 -4 9 -1
8 6 -2 9 9 13 31 14 19 0 36 6 39 13 2 6 8 10 13 7 5 -3 32 5 61 19 49 24 75
26 63 5 -4 -5 3 -9 14 -9 12 0 21 5 21 10 0 6 -5 10 -11 10 -5 0 -7 5 -3 11 4
8 9 8 13 1 16 -26 56 -30 96 -9 28 14 36 15 28 5 -19 -22 -4 -29 23 -11 13 8
25 13 25 9 5 -25 1 -32 -21 -37 l-25 -6 29 -8 c19 -5 31 -4 36 5 4 7 13 11 20
8 7 -2 4 -13 -12 -33 -12 -16 -18 -27 -13 -24 6 3 33 16 60 28 28 13 59 30 69
40 11 9 16 10 12 4 -4 -8 -1 -13 8 -13 9 0 16 5 16 10 0 6 6 10 14 10 7 0 25
9 39 20 14 11 36 20 49 20 12 0 38 9 56 20 18 11 39 20 46 20 21 0 143 56 390
178 125 62 230 111 233 109 8 -8 -986 -507 -1011 -507 -8 0 -54 -20 -251 -110
-38 -18 -164 -78 -280 -135 -268 -131 -375 -179 -464 -210 -39 -13 -84 -32
-99 -42 -15 -10 -38 -24 -52 -30 -121 -53 -174 -73 -195 -73 -14 0 -25 -4 -25
-10 0 -5 -6 -10 -12 -10 -7 0 -38 -13 -68 -29 -146 -75 -219 -110 -260 -125
-54 -20 -335 -158 -403 -198 -26 -15 -59 -28 -72 -28 -14 0 -25 -4 -25 -10 0
-5 -9 -10 -20 -10 -11 0 -20 -4 -20 -9 0 -4 -26 -16 -57 -26 -32 -10 -62 -21
-68 -25 -13 -8 -182 -72 -253 -95 -48 -16 -54 -16 -77 -1 -34 22 -54 20 -77
-9 -23 -30 -68 -51 -125 -60 -29 -5 -50 -15 -63 -32 -28 -36 -112 -50 -164
-28 -33 14 -39 14 -59 0 -12 -8 -25 -15 -30 -15 -10 0 0 58 24 134 36 114 19
141 -97 151 -76 8 -117 29 -156 80 -20 26 -27 77 -12 82 6 2 33 -15 61 -37 28
-22 62 -40 75 -40 l25 0 -13 52 c-8 29 -14 65 -14 81 0 29 0 29 -52 24 -52 -4
-114 -22 -193 -55 -58 -25 -143 -21 -198 7 -50 26 -67 56 -67 122 0 36 -2 39
-29 39 -31 0 -61 22 -61 44 0 25 40 65 68 68 20 2 26 8 25 23 -1 11 2 34 8 51
8 28 18 34 90 58 44 14 100 26 123 26 23 0 45 3 49 6 3 3 -4 21 -15 40 -22 38
-28 113 -14 200 7 42 5 57 -8 75 -24 35 -20 67 13 100 33 33 90 40 111 14 15
-18 50 -20 50 -2 0 6 -9 26 -20 42 -27 41 -25 100 5 153 17 30 23 52 19 71 -3
16 -1 38 5 49 8 15 7 23 -3 31 -11 9 -16 9 -21 1 -5 -8 -20 -9 -42 -5 -19 3
-40 2 -46 -3 -7 -6 -28 -12 -47 -15 -19 -3 -43 -8 -52 -12 -23 -9 -23 11 0 24
15 9 15 10 1 16 -22 8 -69 -12 -69 -30 0 -8 -4 -15 -10 -15 -16 0 -11 27 6 34
9 4 14 13 10 22 -3 8 -2 12 3 9 5 -3 12 -1 16 5 3 5 0 10 -8 10 -23 0 -59 -59
-53 -86 5 -19 3 -24 -13 -24 -13 0 -18 5 -15 14 7 18 -16 32 -26 16 -4 -7 -13
-9 -19 -6 -16 11 -13 26 4 20 24 -10 17 10 -15 41 -16 16 -30 34 -30 39 0 15
-72 14 -77 -2 -3 -8 2 -10 14 -6 16 5 16 4 -1 -10 -27 -21 -36 -20 -36 5 0 14
-5 19 -14 16 -8 -3 -17 -1 -20 6 -3 8 -10 6 -20 -7 -9 -11 -19 -16 -23 -12 -4
4 0 12 10 17 9 6 15 14 12 19 -3 4 4 6 15 3 26 -7 25 4 -2 26 -12 10 -18 23
-14 29 10 17 27 15 20 -2 -3 -7 6 -20 19 -29 23 -15 25 -15 36 11 11 22 10 28
-6 40 -16 13 -14 14 20 9 28 -4 37 -2 37 8 0 19 -32 35 -70 35 -39 0 -145 49
-182 84 -17 17 -29 22 -34 15 -10 -17 -24 12 -18 37 4 16 -3 27 -28 45 -18 12
-35 24 -38 26 -2 2 1 8 9 12 10 6 9 10 -4 14 -9 4 -13 3 -10 -3 10 -17 -12
-11 -36 10 -13 10 -18 19 -11 20 19 0 14 20 -10 41 l-23 20 25 -11 c25 -11 25
-11 -2 14 -18 16 -23 26 -15 29 8 4 8 6 -2 6 -22 1 -86 63 -83 80 3 13 1 13
-12 2 -9 -8 -18 -12 -20 -10 -1 2 -11 15 -20 29 l-18 25 6 -27 c5 -24 4 -25
-17 -15 -27 13 -28 58 -2 87 13 14 14 23 5 39 -10 20 -9 20 15 9 14 -6 25 -15
25 -20 0 -4 9 -8 19 -8 10 0 22 -7 25 -16 4 -9 9 -14 13 -11 7 8 -18 47 -50
79 -13 13 -32 38 -42 56 -11 17 -23 32 -27 32 -4 0 -8 9 -8 19 0 14 -18 29
-65 52 -64 31 -93 54 -82 65 3 3 15 -4 26 -15 28 -28 114 -31 104 -4 -4 10
-19 29 -34 44 -21 20 -30 24 -39 15 -9 -8 -11 -6 -10 9 4 35 0 38 -19 14 l-19
-24 -11 29 c-7 16 -27 60 -46 98 -19 38 -35 79 -34 91 0 18 2 17 11 -8 16 -46
38 -67 55 -53 8 6 12 17 9 23 -2 7 0 17 6 23 11 11 48 5 48 -8 0 -4 7 -10 14
-13 10 -4 13 -1 10 7 -6 17 -52 38 -65 31 -5 -4 -9 -1 -9 4 0 6 -7 11 -15 11
-8 0 -15 -6 -15 -14 0 -8 -4 -17 -9 -20 -5 -4 -7 3 -4 14 3 11 9 23 14 26 16
9 10 19 -21 37 l-30 18 0 -28 c0 -20 -3 -24 -9 -14 -5 8 -7 20 -4 28 8 21 -12
15 -51 -16z m6937 -305 c4 -10 1 -13 -9 -9 -7 3 -14 9 -14 14 0 14 17 10 23
-5z m-95 -64 c-7 -18 -19 -32 -27 -32 -12 0 -12 3 1 18 8 9 18 26 22 36 3 10
9 17 11 14 3 -2 -1 -19 -7 -36z m112 28 c3 -1 9 -2 14 -1 5 1 6 -5 2 -14 -3
-9 -6 -19 -6 -21 0 -2 -9 -4 -20 -4 -11 0 -19 6 -17 12 1 7 -8 14 -20 16 -36
5 -27 20 10 17 17 -2 34 -4 37 -5z m-66 -86 c18 -18 21 -34 6 -34 -5 0 -11 8
-11 18 -1 16 -2 16 -6 0 -2 -10 -9 -18 -15 -18 -5 0 -7 7 -4 16 3 9 6 20 6 25
0 13 6 11 24 -7z m-94 2 c0 -3 -4 -8 -10 -11 -5 -3 -10 -1 -10 4 0 6 5 11 10
11 6 0 10 -2 10 -4z m-6510 -36 c0 -5 -5 -10 -11 -10 -5 0 -7 5 -4 10 3 6 8
10 11 10 2 0 4 -4 4 -10z m6390 -18 c0 -10 5 -23 12 -30 16 -16 -4 -15 -27 2
-11 8 -16 19 -12 30 9 22 27 21 27 -2z m130 -2 c0 -5 -2 -10 -4 -10 -3 0 -8 5
-11 10 -3 6 -1 10 4 10 6 0 11 -4 11 -10z m-140 -72 c0 -17 -23 -3 -26 16 -2
14 0 15 12 5 8 -6 14 -16 14 -21z m-6367 -5 c3 -16 3 -32 0 -37 -7 -10 -32 45
-26 57 9 15 21 6 26 -20z m-69 -8 c-9 -14 -19 -23 -22 -20 -5 4 26 45 35 45 2
0 -4 -11 -13 -25z m6371 6 c-3 -6 -11 -8 -17 -5 -6 4 -5 9 3 15 16 10 23 4 14
-10z m26 -34 c-13 -13 -26 -3 -16 12 3 6 11 8 17 5 6 -4 6 -10 -1 -17z m44 13
c3 -5 -1 -10 -9 -10 -9 0 -16 5 -16 10 0 6 4 10 9 10 6 0 13 -4 16 -10z m154
-4 c9 -10 9 -16 1 -21 -12 -7 -40 11 -40 26 0 14 26 10 39 -5z m-154 -36 c-8
-13 8 -13 22 1 7 7 13 7 17 1 11 -19 -35 -25 -52 -8 -15 15 -15 16 1 16 10 0
15 -4 12 -10z m-5 -54 c0 -17 8 -28 28 -35 l27 -11 -29 5 c-24 5 -28 3 -24
-12 3 -10 7 -24 9 -32 3 -10 -5 -16 -23 -17 -33 -3 -48 28 -24 52 21 20 20 28
-1 20 -16 -6 -16 -6 0 12 21 23 22 33 2 26 -8 -4 -15 -1 -15 5 0 6 11 11 25
11 20 0 25 -5 25 -24z m60 4 c0 -5 -2 -10 -4 -10 -3 0 -8 5 -11 10 -3 6 -1 10
4 10 6 0 11 -4 11 -10z m-64 -176 c-6 -21 -9 -23 -26 -14 -11 6 -20 15 -20 20
0 14 27 12 34 -2 3 -7 3 3 0 22 -4 29 -3 32 6 17 7 -10 9 -29 6 -43z m-6216 9
c0 -8 4 -12 9 -9 5 3 11 -3 14 -14 3 -11 1 -23 -4 -26 -5 -3 -9 -19 -9 -36 0
-17 -3 -28 -7 -25 -3 4 -6 26 -5 49 l1 43 -15 -40 c-16 -43 -30 -62 -40 -53
-3 4 1 17 9 30 18 27 34 102 18 78 -12 -17 -14 -10 -5 14 7 18 34 10 34 -11z
m-54 -40 c-11 -11 -19 6 -11 24 8 17 8 17 12 0 3 -10 2 -21 -1 -24z m6221 11
c-3 -3 -12 -4 -19 -1 -8 3 -5 6 6 6 11 1 17 -2 13 -5z m-6117 -44 c0 -5 -4
-10 -10 -10 -5 0 -10 5 -10 10 0 6 5 10 10 10 6 0 10 -4 10 -10z m6000 6 c0
-3 -4 -8 -10 -11 -5 -3 -10 -1 -10 4 0 6 5 11 10 11 6 0 10 -2 10 -4z m350 -5
c0 -15 -12 -41 -19 -41 -3 0 -6 11 -6 25 0 14 6 25 13 25 6 0 12 -4 12 -9z
m-6330 -21 c0 -6 -7 -13 -16 -17 -13 -5 -13 -7 -2 -14 9 -6 9 -9 1 -9 -19 0
-26 20 -13 35 14 17 30 20 30 5z m6105 0 c3 -5 1 -10 -4 -10 -6 0 -11 5 -11
10 0 6 2 10 4 10 3 0 8 -4 11 -10z m-188 -26 c-9 -9 -28 6 -21 18 4 6 10 6 17
-1 6 -6 8 -13 4 -17z m73 -25 c0 -4 -4 -11 -10 -14 -10 -6 -14 7 -11 32 1 8
-5 10 -16 7 -15 -5 -16 -4 -3 5 11 8 18 7 28 -6 6 -9 12 -20 12 -24z m-6104
-14 c-9 -14 -21 -25 -26 -25 -15 0 -12 6 12 33 28 31 37 26 14 -8z m74 11 c0
-8 7 -17 16 -20 8 -3 12 -11 8 -17 -5 -9 1 -10 19 -5 14 3 29 2 32 -4 3 -5 0
-10 -7 -11 -7 0 14 -14 47 -30 70 -34 42 -42 -32 -8 -65 29 -133 109 -93 109
6 0 10 -6 10 -14z m5980 4 c0 -5 -4 -10 -10 -10 -5 0 -10 5 -10 10 0 6 5 10
10 10 6 0 10 -4 10 -10z m-6594 -55 c-10 -8 -23 -12 -28 -9 -6 4 1 12 14 18
29 16 39 9 14 -9z m6614 22 c0 -7 -37 -47 -44 -47 -3 0 -6 9 -6 19 0 12 8 21
23 24 12 2 23 5 25 6 1 0 2 -1 2 -2z m-5850 -37 c0 -13 -30 -13 -50 0 -11 7
-7 10 18 10 17 0 32 -4 32 -10z m-680 -30 c0 -5 -4 -10 -10 -10 -5 0 -10 5
-10 10 0 6 5 10 10 10 6 0 10 -4 10 -10z m6300 0 c0 -5 -5 -10 -11 -10 -5 0
-7 5 -4 10 3 6 8 10 11 10 2 0 4 -4 4 -10z m-60 -10 c0 -5 -4 -10 -10 -10 -5
0 -10 5 -10 10 0 6 5 10 10 10 6 0 10 -4 10 -10z m-5500 -108 c0 -37 -4 -72
-8 -79 -4 -6 -7 26 -7 72 -1 46 3 81 7 79 4 -3 8 -35 8 -72z m-730 58 c0 -5
-4 -10 -9 -10 -6 0 -13 5 -16 10 -3 6 1 10 9 10 9 0 16 -4 16 -10z m860 -3 c0
-2 -9 -14 -20 -27 -16 -18 -20 -20 -20 -7 0 10 -3 16 -7 16 -17 -3 -24 2 -18
11 6 9 65 15 65 7z m-298 -177 c-6 -43 -12 -37 -12 13 0 25 4 37 8 29 5 -7 7
-26 4 -42z m253 0 c-3 -5 -10 -10 -16 -10 -5 0 -9 5 -9 10 0 6 7 10 16 10 8 0
12 -4 9 -10z m-844 -23 c-10 -9 -11 -8 -5 6 3 10 9 15 12 12 3 -3 0 -11 -7
-18z m-56 -46 c-3 -6 -11 -11 -16 -11 -5 0 -4 6 3 14 14 16 24 13 13 -3z
m1365 -48 c0 -20 -3 -24 -11 -16 -7 7 -9 19 -6 27 10 24 17 19 17 -11z m5032
-8 c4 -20 3 -23 -8 -14 -8 6 -14 8 -14 5 0 -4 -5 -4 -12 0 -7 5 -5 11 7 21 24
17 22 17 27 -12z m182 -11 c9 -24 7 -28 -7 -15 -8 6 -17 8 -20 4 -4 -3 -7 -2
-7 4 0 25 25 30 34 7z m-5286 -21 c12 -3 22 -9 22 -14 0 -16 -31 -9 -58 13
-20 15 -22 19 -7 13 11 -4 30 -10 43 -12z m5157 -33 c3 -5 -1 -10 -9 -10 -8 0
-18 5 -21 10 -3 6 1 10 9 10 8 0 18 -4 21 -10z m-5405 -4 c0 -2 -7 -7 -16 -10
-8 -3 -12 -2 -9 4 6 10 25 14 25 6z m5630 0 c0 -3 -4 -8 -10 -11 -5 -3 -10 -1
-10 4 0 6 5 11 10 11 6 0 10 -2 10 -4z m-160 -37 c0 -6 -4 -7 -10 -4 -5 3 -10
11 -10 16 0 6 5 7 10 4 6 -3 10 -11 10 -16z m46 -1 c9 -28 1 -29 -18 -4 -13
18 -14 23 -2 23 7 0 16 -9 20 -19z m-6586 2 c0 -5 -3 -10 -7 -10 -5 0 -19 -3
-33 -6 l-25 -6 25 15 c31 18 40 20 40 7z m1060 -15 c0 -11 -41 -24 -289 -95
-41 -11 -81 -18 -89 -15 -25 9 -4 19 66 31 66 12 213 52 262 72 28 12 50 15
50 7z m5626 -24 c7 -13 18 -27 25 -31 15 -10 39 -79 29 -85 -9 -5 -70 85 -70
102 0 6 -7 13 -15 17 -21 8 -19 28 2 24 10 -2 23 -14 29 -27z m-634 -12 c11
-7 -1 -41 -13 -33 -5 3 -9 20 -8 37 0 18 3 25 6 17 3 -8 10 -18 15 -21z m521
-29 c-8 -34 -7 -34 -39 -6 -29 25 -29 25 -5 26 16 0 21 4 17 15 -4 12 -2 13
14 3 14 -9 18 -19 13 -38z m-898 1 c-8 -14 41 -63 60 -59 9 1 15 7 15 13 -1 5
9 13 21 17 22 8 22 9 3 23 -10 8 -14 15 -7 15 7 0 18 -7 25 -15 7 -9 18 -22
25 -29 10 -11 10 -16 -1 -25 -10 -8 -16 -9 -21 -1 -10 16 -35 12 -35 -7 0 -9
3 -14 6 -10 6 6 34 -16 34 -27 0 -8 -89 25 -96 35 -3 6 -16 -2 -29 -17 -20
-23 -26 -26 -39 -15 -9 7 -13 17 -10 22 3 5 1 9 -4 9 -19 0 -23 -34 -6 -47 10
-7 13 -13 7 -13 -18 0 -27 21 -28 62 0 30 4 37 22 41 14 2 20 0 16 -9 -6 -15
16 -29 28 -17 5 5 3 19 -4 33 -7 14 -11 33 -9 42 3 16 5 16 18 3 9 -8 13 -19
9 -24z m45 18 c0 -5 -4 -9 -10 -9 -5 0 -10 7 -10 16 0 8 5 12 10 9 6 -3 10
-10 10 -16z m1190 -10 c0 -5 -4 -9 -10 -9 -5 0 -10 7 -10 16 0 8 5 12 10 9 6
-3 10 -10 10 -16z m-6986 -14 c-7 -16 -24 -21 -24 -6 0 8 7 13 27 20 1 1 0 -6
-3 -14z m4393 -7 c-3 -8 -6 -5 -6 6 -1 11 2 17 5 13 3 -3 4 -12 1 -19z m-4437
2 c0 -5 -5 -10 -11 -10 -5 0 -7 5 -4 10 3 6 8 10 11 10 2 0 4 -4 4 -10z m5854
-11 c-31 -12 -39 -10 -19 5 11 8 24 12 29 8 5 -3 1 -9 -10 -13z m590 -4 c19
-29 21 -48 4 -42 -7 2 -13 12 -13 22 0 10 -6 20 -13 23 -6 2 -12 8 -12 13 0
17 18 9 34 -16z m-6341 -9 c4 -10 -2 -18 -16 -22 -12 -4 -34 -15 -49 -25 -35
-25 -47 -24 -20 1 12 12 22 24 22 28 0 7 35 28 51 31 4 0 9 -6 12 -13z m6284
-36 c-1 -11 -5 -20 -9 -20 -4 0 -8 2 -8 4 0 2 -3 11 -6 20 -4 10 -1 16 9 16
10 0 15 -8 14 -20z m-711 -27 c-11 -11 -19 6 -11 24 8 17 8 17 12 0 3 -10 2
-21 -1 -24z m643 17 c1 8 13 -4 27 -27 15 -26 33 -43 43 -43 10 0 24 -7 31
-15 15 -18 37 -20 43 -2 3 9 8 8 22 -3 17 -14 17 -12 13 22 -4 41 3 40 40 -4
18 -21 31 -27 58 -26 40 1 53 -7 36 -24 -16 -16 -15 -49 3 -72 16 -21 20 -66
7 -66 -14 0 -50 43 -61 73 -13 33 -38 45 -60 28 -9 -6 -24 -14 -33 -17 -35
-12 -14 -37 39 -49 42 -9 72 -57 78 -125 2 -28 10 -59 17 -67 30 -36 7 -66
-35 -45 -47 24 -74 31 -85 20 -8 -8 -19 -8 -39 0 -15 6 -40 13 -55 16 -33 7
-68 62 -68 107 0 19 -9 48 -20 64 -11 17 -20 40 -20 53 0 12 -4 22 -10 22 -5
0 -10 14 -10 30 0 20 5 30 15 30 8 0 23 10 35 22 l20 22 -31 32 c-23 24 -30
38 -24 51 7 17 8 17 15 -2 6 -13 9 -15 9 -5z m-349 -21 c0 -5 -4 -9 -10 -9 -5
0 -10 7 -10 16 0 8 5 12 10 9 6 -3 10 -10 10 -16z m30 -14 c0 -8 -4 -15 -10
-15 -5 0 -10 7 -10 15 0 8 5 15 10 15 6 0 10 -7 10 -15z m-6005 -5 c-3 -5 -10
-10 -16 -10 -5 0 -9 5 -9 10 0 6 7 10 16 10 8 0 12 -4 9 -10z m4311 -2 c7 -11
-38 -58 -57 -58 -15 0 -10 32 8 52 18 21 39 23 49 6z m2827 -14 c12 -14 32
-35 45 -47 12 -11 22 -27 22 -34 0 -43 -110 33 -115 80 -4 35 19 36 48 1z
m-1455 -39 c-3 -3 -9 2 -12 12 -6 14 -5 15 5 6 7 -7 10 -15 7 -18z m1331 -21
c39 -44 59 -93 46 -114 -10 -16 -22 -12 -55 20 -17 17 -37 30 -45 30 -11 0
-15 13 -15 48 0 77 12 80 69 16z m-7009 16 c0 -5 -5 -10 -11 -10 -5 0 -7 5 -4
10 3 6 8 10 11 10 2 0 4 -4 4 -10z m4226 -37 c-8 -8 -36 5 -36 17 0 7 6 7 21
0 11 -7 18 -14 15 -17z m1554 -14 c0 -11 -4 -19 -10 -19 -5 0 -10 6 -10 14 0
8 -3 23 -7 33 -6 16 -5 16 10 4 9 -7 17 -22 17 -32z m1011 0 c21 -22 45 -57
55 -77 9 -21 37 -58 61 -85 38 -41 44 -52 41 -85 -2 -30 -9 -40 -34 -52 -17
-8 -35 -24 -40 -35 -11 -25 -63 -24 -82 2 -15 21 -7 70 15 95 11 13 12 21 3
37 -6 12 -15 21 -19 21 -5 0 -19 21 -32 48 -12 26 -33 60 -46 75 -13 16 -23
33 -23 39 0 13 41 55 54 57 5 1 26 -17 47 -40z m-3286 -34 c-35 -34 -44 -49
-37 -58 8 -9 4 -18 -14 -32 -14 -11 -33 -28 -42 -37 -17 -19 -32 -23 -32 -10
0 4 16 17 35 30 36 23 47 52 20 52 -18 0 -20 30 -2 30 6 0 32 16 57 35 63 49
71 43 15 -10z m683 28 c-5 -25 -28 -28 -28 -4 0 12 6 21 16 21 9 0 14 -7 12
-17z m1906 2 c-4 -8 -10 -15 -15 -15 -5 0 -9 7 -9 15 0 8 7 15 15 15 9 0 12
-6 9 -15z m-1834 -5 c0 -5 -2 -10 -4 -10 -2 0 -12 -3 -22 -7 -16 -6 -17 -5 -4
10 17 19 30 22 30 7z m-1302 -52 c-11 -63 -27 -108 -39 -108 -12 0 -11 17 1
25 6 4 8 21 4 41 -4 24 -2 34 6 34 7 0 10 7 6 15 -4 12 17 45 28 45 2 0 -1
-24 -6 -52z m4820 28 c12 -4 22 -15 22 -26 0 -18 -1 -18 -30 -2 -18 10 -30 25
-30 37 0 12 3 16 8 9 4 -6 17 -14 30 -18z m-7718 4 c0 -9 -32 -30 -46 -30 -4
0 1 9 11 20 19 21 35 26 35 10z m10 -49 c-17 -17 -34 -31 -36 -31 -3 0 -12 -7
-20 -15 -9 -8 -20 -15 -26 -15 -6 0 0 9 13 20 13 11 40 33 59 49 45 37 50 33
10 -8z m3303 8 c-12 -12 -27 -19 -34 -16 -9 3 -6 8 11 15 14 6 21 11 15 12 -5
0 -3 4 5 10 24 15 26 1 3 -21z m777 27 c0 -2 -7 -7 -16 -10 -8 -3 -12 -2 -9 4
6 10 25 14 25 6z m-1660 -29 c0 -38 50 -88 118 -118 57 -26 92 -50 92 -62 0
-3 -7 -8 -16 -11 -8 -3 -12 -2 -9 4 10 16 -17 36 -58 43 -21 3 -63 22 -93 41
-53 33 -56 37 -60 80 -3 35 0 46 11 46 9 0 15 -9 15 -23z m1130 19 c0 -2 -9
-6 -20 -9 -11 -3 -18 -1 -14 4 5 9 34 13 34 5z m100 -10 c0 -3 -4 -8 -10 -11
-5 -3 -10 -1 -10 4 0 6 5 11 10 11 6 0 10 -2 10 -4z m-3720 -16 c0 -5 -7 -10
-15 -10 -8 0 -15 5 -15 10 0 6 7 10 15 10 8 0 15 -4 15 -10z m3563 -10 c3 -11
2 -18 -3 -15 -4 2 -19 -6 -33 -19 -14 -13 -39 -30 -56 -37 -36 -16 -42 -34 -8
-26 l22 6 -24 -20 c-13 -10 -28 -19 -35 -19 -6 0 -4 4 4 10 8 5 11 12 7 16 -3
4 -22 -5 -41 -20 -19 -14 -38 -26 -41 -26 -3 0 -22 -12 -41 -26 -19 -15 -37
-25 -40 -22 -10 10 9 38 26 38 10 0 23 7 30 16 8 8 27 21 44 28 17 8 41 23 52
34 12 11 45 33 73 48 28 16 51 34 51 41 0 19 7 16 13 -7z m-53 0 c0 -5 -2 -10
-4 -10 -3 0 -8 5 -11 10 -3 6 -1 10 4 10 6 0 11 -4 11 -10z m-3030 -6 c0 -12
-74 -74 -84 -71 -24 8 -15 28 14 33 17 4 37 15 43 25 11 18 27 26 27 13z
m2853 -28 c-3 -4 -9 -2 -14 5 -13 22 -11 31 5 17 8 -7 12 -17 9 -22z m71 10
c-3 -9 -10 -16 -16 -16 -17 0 -74 -62 -61 -67 10 -3 10 -7 0 -18 -9 -10 -15
-10 -26 -1 -8 6 -17 10 -20 9 -12 -5 -39 8 -44 21 -4 9 2 12 16 9 23 -5 117
42 117 58 0 5 7 9 15 9 8 0 15 5 15 12 0 6 2 9 5 6 3 -3 3 -13 -1 -22z m836
14 c0 -5 -4 -10 -10 -10 -5 0 -10 5 -10 10 0 6 5 10 10 10 6 0 10 -4 10 -10z
m-490 -4 c0 -11 -19 -15 -25 -6 -3 5 1 10 9 10 9 0 16 -2 16 -4z m-450 -21 c0
-8 -7 -15 -15 -15 -26 0 -18 20 13 29 1 1 2 -6 2 -14z m410 -2 c-19 -8 -44
-33 -33 -33 12 -1 -40 -29 -54 -30 -7 0 -13 5 -13 10 0 6 11 10 25 10 14 0 25
4 25 9 0 16 30 41 48 40 14 0 14 -2 2 -6z m350 -8 c-7 -9 -15 -13 -19 -10 -3
3 1 10 9 15 21 14 24 12 10 -5z m-3700 -24 c0 -5 14 -14 30 -20 35 -12 37 -21
10 -41 -11 -8 -20 -21 -20 -30 0 -13 -1 -13 -10 0 -5 8 -10 10 -10 4 0 -14
-75 -55 -85 -46 -5 4 -5 1 -1 -5 4 -7 3 -13 -3 -13 -6 0 -8 -7 -5 -15 4 -8 1
-15 -6 -15 -6 0 -8 -5 -5 -10 4 -6 11 -8 16 -5 5 4 9 1 9 -5 0 -6 -8 -14 -17
-17 -10 -4 -22 -12 -26 -20 -4 -7 -35 -31 -67 -53 -45 -31 -66 -39 -84 -34
-16 4 -36 -1 -55 -12 -35 -21 -51 -13 -26 12 9 9 21 29 26 43 8 19 12 22 18
12 14 -21 46 8 48 43 1 16 12 40 25 53 12 13 23 31 24 40 4 23 30 47 38 35 3
-6 -1 -17 -9 -26 -8 -8 -11 -17 -6 -20 15 -10 36 25 32 57 -3 28 -1 29 24 23
23 -6 32 -1 62 34 31 36 73 54 73 31z m4570 -12 c0 -5 -4 -9 -10 -9 -5 0 -10
7 -10 16 0 8 5 12 10 9 6 -3 10 -10 10 -16z m-3993 -46 c-3 -10 -5 -4 -5 12 0
17 2 24 5 18 2 -7 2 -21 0 -30z m-687 7 c0 -5 -5 -10 -11 -10 -5 0 -7 5 -4 10
3 6 8 10 11 10 2 0 4 -4 4 -10z m4775 0 c3 -5 1 -10 -4 -10 -6 0 -11 5 -11 10
0 6 2 10 4 10 3 0 8 -4 11 -10z m-1539 -29 c-12 -19 -24 -12 -19 10 4 13 9 17
15 11 6 -6 7 -15 4 -21z m1464 -4 c0 -5 -4 -5 -10 -2 -5 3 -10 14 -10 23 0 15
2 15 10 2 5 -8 10 -19 10 -23z m-2315 3 c3 -5 1 -10 -4 -10 -6 0 -11 5 -11 10
0 6 2 10 4 10 3 0 8 -4 11 -10z m-2205 -10 c0 -5 -4 -10 -10 -10 -5 0 -10 5
-10 10 0 6 5 10 10 10 6 0 10 -4 10 -10z m500 5 c0 -7 -63 -45 -75 -45 -5 0 8
11 30 25 44 27 45 27 45 20z m2199 2 c-2 -1 -15 -11 -29 -22 l-25 -20 19 23
c11 12 24 22 29 22 6 0 8 -1 6 -3z m2811 -57 c0 -5 -2 -10 -4 -10 -3 0 -8 5
-11 10 -3 6 -1 10 4 10 6 0 11 -4 11 -10z m1559 -4 c7 -8 22 -17 35 -20 12 -3
28 -17 36 -31 7 -14 19 -25 26 -25 12 0 24 -30 24 -62 0 -28 -27 -21 -47 12
-9 17 -25 33 -35 36 -10 3 -21 16 -24 29 -3 13 -14 25 -25 28 -11 3 -19 14
-19 26 0 24 12 27 29 7z m-7169 -16 c0 -5 -4 -10 -10 -10 -5 0 -10 5 -10 10 0
6 5 10 10 10 6 0 10 -4 10 -10z m2911 -73 c-10 -9 -11 -8 -5 6 3 10 9 15 12
12 3 -3 0 -11 -7 -18z m3817 -63 c-5 -28 -28 -29 -28 -1 0 13 3 27 7 31 10 10
25 -10 21 -30z m-4004 -11 c4 -10 4 -14 0 -10 -4 4 -13 -1 -20 -11 -9 -12 -16
-14 -24 -6 -8 8 -7 15 5 28 21 21 31 20 39 -1z m-49 -43 c3 -5 1 -10 -4 -10
-6 0 -11 5 -11 10 0 6 2 10 4 10 3 0 8 -4 11 -10z m1163 -164 c3 -12 -1 -17
-10 -14 -7 3 -15 13 -16 22 -3 12 1 17 10 14 7 -3 15 -13 16 -22z m2692 -1 c0
-8 -4 -15 -9 -15 -13 0 -22 16 -14 24 11 11 23 6 23 -9z m-20 -30 c0 -8 -4
-15 -10 -15 -5 0 -10 7 -10 15 0 8 5 15 10 15 6 0 10 -7 10 -15z m-2633 -27
c27 -25 31 -58 6 -58 -35 0 -68 52 -46 73 10 11 15 9 40 -15z m-52 -242 c30
-14 55 -28 55 -31 0 -7 -52 -54 -61 -55 -11 0 -59 75 -59 93 0 22 -1 22 65 -7z
m-432 -83 c16 -13 33 -23 38 -23 6 0 8 -4 5 -9 -3 -5 5 -25 19 -45 14 -20 28
-48 31 -61 5 -21 3 -25 -15 -25 -12 0 -36 7 -52 16 -28 14 -30 18 -24 57 6 40
5 43 -29 61 -25 14 -36 26 -36 42 0 28 19 24 63 -13z m-2548 -33 c3 -5 1 -10
-4 -10 -6 0 -11 5 -11 10 0 6 2 10 4 10 3 0 8 -4 11 -10z m3267 -2 c40 -33 80
-110 89 -174 5 -36 24 -98 44 -140 19 -41 35 -83 35 -94 0 -30 -42 -46 -77
-31 -63 27 -73 44 -84 138 -14 119 -24 152 -59 204 -34 50 -37 71 -14 93 19
19 45 20 66 4z"/>
<path d="M6356 1575 c-8 -21 1 -35 20 -35 10 0 14 8 12 22 -4 27 -23 34 -32
13z"/>
<path d="M6480 1565 c0 -8 4 -15 10 -15 5 0 7 7 4 15 -4 8 -8 15 -10 15 -2 0
-4 -7 -4 -15z"/>
<path d="M6470 1398 c0 -18 18 -34 28 -24 3 4 -2 14 -11 23 -16 16 -17 16 -17
1z"/>
<path d="M236 1244 c-20 -19 -20 -28 -2 -21 10 4 13 1 10 -8 -3 -8 -14 -17
-25 -20 -10 -4 -19 -11 -19 -16 0 -5 -8 -9 -17 -9 -12 0 -14 -3 -7 -10 19 -19
61 6 75 44 7 20 20 36 29 36 13 0 13 1 0 10 -20 13 -26 12 -44 -6z"/>
<path d="M180 1200 c-9 -6 -10 -10 -3 -10 6 0 15 5 18 10 8 12 4 12 -15 0z"/>
<path d="M2666 3425 c4 -8 10 -15 15 -15 5 0 9 7 9 15 0 8 -7 15 -15 15 -9 0
-12 -6 -9 -15z"/>
<path d="M6995 3430 c-3 -5 -1 -10 4 -10 6 0 11 5 11 10 0 6 -2 10 -4 10 -3 0
-8 -4 -11 -10z"/>
<path d="M916 3403 c21 -23 26 -25 37 -12 7 8 11 13 8 12 -2 -1 -13 4 -25 12
-34 24 -47 17 -20 -12z"/>
<path d="M4974 3394 c-49 -34 -56 -43 -104 -139 -121 -243 -20 -447 174 -348
80 40 155 125 142 159 -8 20 -19 18 -47 -8 -73 -67 -112 -91 -157 -96 -39 -3
-50 0 -66 17 -54 60 18 339 91 349 16 2 27 -7 45 -40 15 -28 30 -43 43 -43 17
0 21 8 23 48 3 45 0 51 -36 88 -22 21 -46 39 -54 39 -9 0 -33 -12 -54 -26z"/>
<path d="M6862 3407 c-9 -10 -6 -18 10 -31 20 -18 21 -18 13 0 -4 11 -8 25 -8
32 0 15 -2 15 -15 -1z"/>
<path d="M833 3399 c-29 -11 -30 -23 -2 -14 13 5 19 3 15 -3 -6 -10 23 -26 32
-17 3 3 -1 5 -9 6 -8 0 -6 4 6 8 19 8 19 8 0 18 -12 6 -29 7 -42 2z"/>
<path d="M3933 3378 c-4 -7 -6 -42 -4 -78 5 -118 -30 -326 -76 -447 l-16 -43
-27 38 c-15 21 -57 89 -94 152 -82 142 -90 153 -112 148 -21 -4 -27 -16 -50
-98 -10 -36 -42 -125 -70 -199 l-52 -134 -15 29 c-20 39 -80 194 -127 327 -21
59 -45 119 -54 132 -19 29 -47 32 -67 9 -11 -13 -11 -23 3 -58 98 -255 140
-363 168 -426 33 -77 73 -130 97 -130 18 0 65 104 128 282 27 75 52 135 55
133 3 -2 36 -55 74 -118 103 -174 139 -209 182 -179 12 8 77 225 99 329 17 86
31 279 21 317 -5 19 -13 26 -31 26 -13 0 -27 -6 -32 -12z"/>
<path d="M6845 3360 c-3 -6 1 -7 9 -4 18 7 21 14 7 14 -6 0 -13 -4 -16 -10z"/>
<path d="M610 3333 c13 -18 25 -33 27 -33 8 0 -17 38 -33 51 -11 9 -9 2 6 -18z"/>
<path d="M550 3331 c0 -10 29 -36 34 -30 1 2 -6 12 -16 22 -10 9 -18 13 -18 8z"/>
<path d="M435 3299 c-7 -10 34 -99 45 -99 6 0 10 7 10 16 0 8 -5 12 -10 9 -7
-4 -8 3 -4 21 5 19 4 25 -5 20 -8 -6 -10 -1 -6 16 5 19 2 25 -10 25 -9 0 -18
-4 -20 -8z"/>
<path d="M4255 3271 c-141 -85 -204 -358 -108 -467 24 -28 86 -47 126 -39 107
23 238 157 213 220 -8 21 -27 10 -60 -36 -77 -109 -206 -143 -237 -63 -9 25
-4 32 80 114 94 91 130 148 131 208 0 70 -78 104 -145 63z m70 -71 c3 -10 -1
-32 -9 -49 -17 -33 -124 -151 -136 -151 -11 0 18 107 37 139 46 73 95 102 108
61z"/>
<path d="M790 3269 c0 -5 5 -7 10 -4 13 8 13 -1 -1 -27 -11 -20 -9 -21 35 -16
39 5 45 3 35 -8 -9 -11 -7 -14 10 -14 14 0 20 4 15 11 -4 8 0 8 15 0 17 -10
21 -9 21 4 0 13 -11 17 -35 14 -3 0 -26 11 -50 25 -49 29 -55 31 -55 15z m55
-29 c3 -5 -3 -10 -14 -10 -12 0 -21 5 -21 10 0 6 6 10 14 10 8 0 18 -4 21 -10z"/>
<path d="M3376 3264 c-9 -22 -8 -24 9 -24 8 0 15 6 15 14 0 22 -17 28 -24 10z"/>
<path d="M5996 3267 c3 -10 9 -15 12 -12 3 3 0 11 -7 18 -10 9 -11 8 -5 -6z"/>
<path d="M23 3245 c-3 -9 -3 -19 1 -22 7 -7 36 16 36 28 0 15 -30 10 -37 -6z"/>
<path d="M1012 3204 c10 -10 20 -15 24 -12 3 4 -5 12 -18 18 -22 12 -22 12 -6
-6z"/>
<path d="M900 3186 c0 -2 9 -6 20 -9 11 -3 20 -1 20 4 0 5 -9 9 -20 9 -11 0
-20 -2 -20 -4z"/>
<path d="M960 3170 c0 -5 5 -10 10 -10 6 0 10 5 10 10 0 6 -4 10 -10 10 -5 0
-10 -4 -10 -10z"/>
<path d="M816 3162 c-3 -5 -2 -19 1 -31 4 -17 8 -19 14 -9 12 18 11 48 0 48
-6 0 -12 -4 -15 -8z"/>
<path d="M869 3153 c-1 -5 -1 -11 0 -15 0 -5 -3 -8 -8 -8 -16 0 -23 -38 -11
-61 9 -16 15 -18 23 -10 13 14 16 81 4 81 -5 0 -5 5 -2 10 3 6 4 10 1 10 -3 0
-7 -3 -7 -7z"/>
<path d="M911 3134 c5 -14 7 -30 4 -35 -4 -5 -2 -16 3 -25 8 -14 11 -11 21 16
14 42 14 43 -3 37 -10 -4 -13 -1 -10 7 3 7 -2 16 -10 19 -12 5 -13 2 -5 -19z"/>
<path d="M7010 3148 c0 -10 -5 -18 -12 -18 -6 0 -9 -3 -5 -6 3 -3 12 -2 21 3
10 6 12 13 6 23 -8 13 -10 12 -10 -2z"/>
<path d="M1030 3139 c0 -7 -9 -9 -22 -6 -22 6 -22 6 -4 -8 11 -8 24 -15 29
-15 5 0 20 -9 34 -20 14 -11 33 -20 42 -19 12 0 11 2 -4 9 -11 5 -16 9 -12 9
9 1 -48 61 -57 61 -3 0 -6 -5 -6 -11z m20 -9 c0 -5 -5 -10 -11 -10 -5 0 -7 5
-4 10 3 6 8 10 11 10 2 0 4 -4 4 -10z"/>
<path d="M7355 3092 c8 -55 13 -62 26 -42 16 25 7 83 -15 86 -16 2 -17 -2 -11
-44z"/>
<path d="M7967 3123 c-4 -3 -7 -22 -7 -41 0 -27 3 -33 16 -28 9 3 18 6 20 6 2
0 4 16 4 35 0 33 -16 46 -33 28z"/>
<path d="M957 3103 c-14 -13 -6 -33 12 -33 14 0 18 5 14 20 -5 21 -15 25 -26
13z"/>
<path d="M3880 3101 c0 -5 5 -13 10 -16 6 -3 10 -2 10 4 0 5 -4 13 -10 16 -5
3 -10 2 -10 -4z"/>
<path d="M800 3091 c0 -5 5 -13 10 -16 6 -3 10 -2 10 4 0 5 -4 13 -10 16 -5 3
-10 2 -10 -4z"/>
<path d="M1010 3080 c13 -9 13 -10 -1 -10 -8 0 -24 -7 -35 -15 -15 -12 -9 -11
29 2 37 14 43 19 30 25 -27 10 -40 9 -23 -2z"/>
<path d="M6880 3077 c0 -9 -5 -17 -11 -17 -5 0 -7 -4 -4 -10 3 -5 1 -10 -5
-10 -17 0 -6 -23 12 -26 11 -1 14 4 10 18 -3 11 1 24 9 29 11 6 11 11 1 21 -9
9 -12 9 -12 -5z"/>
<path d="M1134 3059 c-4 -7 -20 -9 -40 -6 -35 6 -66 -14 -43 -29 8 -5 4 -13
-12 -25 l-24 -19 33 6 c25 5 32 3 32 -10 0 -11 9 -16 30 -16 37 0 38 7 3 21
-18 7 -23 13 -16 20 7 7 23 5 52 -9 41 -20 52 -14 31 18 -6 10 -10 11 -10 3 0
-7 -4 -13 -8 -13 -4 0 -6 16 -4 35 4 34 -9 47 -24 24z m13 -14 c0 -8 -3 -13
-5 -10 -3 3 -12 -1 -21 -7 -10 -8 -9 -4 3 10 23 26 23 26 23 7z m-56 -11 c12
-14 11 -16 -5 -13 -11 2 -21 10 -24 17 -5 17 13 15 29 -4z"/>
<path d="M6960 3058 c0 -6 3 -8 7 -5 3 4 12 2 20 -5 15 -12 28 -5 18 11 -8 15
-45 14 -45 -1z"/>
<path d="M896 3045 c-3 -8 -1 -15 4 -15 13 0 22 18 11 24 -5 3 -11 -1 -15 -9z"/>
<path d="M943 3048 c4 -10 2 -18 -3 -18 -6 0 -10 -8 -10 -17 0 -15 2 -16 10
-3 8 13 10 12 10 -2 0 -10 5 -18 11 -18 5 0 7 5 4 10 -3 6 1 10 10 10 9 0 14
4 11 9 -7 10 22 24 34 16 4 -3 10 2 14 10 5 13 1 13 -32 0 -34 -15 -38 -15
-51 2 -13 17 -13 17 -8 1z"/>
<path d="M641 3025 c13 -13 26 -20 27 -14 5 14 -18 39 -35 39 -11 0 -9 -7 8
-25z"/>
<path d="M1190 3044 c0 -3 5 -15 12 -27 6 -12 13 -31 15 -42 3 -19 21 -212 23
-245 0 -8 8 -1 17 15 19 34 36 121 35 178 0 43 -27 91 -47 84 -7 -3 -12 1 -11
10 0 8 -9 19 -21 24 -13 5 -23 6 -23 3z m60 -79 c11 -13 10 -14 -4 -9 -9 3
-16 10 -16 15 0 13 6 11 20 -6z m10 -169 c0 -3 -4 -8 -10 -11 -5 -3 -10 -1
-10 4 0 6 5 11 10 11 6 0 10 -2 10 -4z"/>
<path d="M7315 3030 c-3 -5 -1 -10 4 -10 6 0 11 5 11 10 0 6 -2 10 -4 10 -3 0
-8 -4 -11 -10z"/>
<path d="M830 3015 c0 -5 10 -21 21 -35 13 -17 17 -18 10 -5 -17 33 -31 51
-31 40z"/>
<path d="M2821 3003 c-1 -9 -14 -11 -45 -7 -25 4 -60 4 -79 0 -70 -13 -166
-126 -136 -162 9 -11 9 -14 -1 -14 -7 0 -3 -11 9 -27 20 -24 20 -27 5 -45 -10
-10 -12 -18 -7 -18 6 0 13 -10 17 -22 5 -22 8 -20 45 22 22 25 38 50 36 57 -2
8 8 10 33 8 35 -3 36 -3 13 9 -14 8 -19 16 -13 20 6 3 14 1 18 -5 4 -8 11 -4
20 12 8 15 14 18 14 9 0 -12 3 -11 11 3 14 23 29 22 29 -4 0 -18 2 -19 15 -9
10 9 15 9 15 1 0 -6 7 -11 15 -11 8 0 15 5 15 11 0 5 5 7 10 4 6 -3 10 -17 10
-30 0 -13 5 -25 12 -27 9 -3 9 -14 0 -49 -7 -24 -13 -53 -15 -64 -1 -11 -6
-27 -11 -35 -4 -8 4 -1 18 15 14 17 26 33 26 38 0 4 5 7 11 7 6 0 1 -16 -11
-35 -17 -28 -19 -35 -7 -35 9 0 25 12 36 28 12 15 25 33 31 39 47 56 21 186
-49 248 -17 15 -28 32 -25 36 3 5 -2 6 -10 3 -9 -3 -16 -1 -16 5 0 6 -6 11
-14 11 -8 0 -17 6 -19 13 -4 9 -6 9 -6 0z m-220 -216 c-10 -9 -11 -8 -5 6 3
10 9 15 12 12 3 -3 0 -11 -7 -18z"/>
<path d="M6790 2988 c0 -10 9 -9 35 2 17 8 16 8 -7 7 -16 -1 -28 -5 -28 -9z"/>
<path d="M7310 2990 c0 -5 5 -10 11 -10 5 0 7 5 4 10 -3 6 -8 10 -11 10 -2 0
-4 -4 -4 -10z"/>
<path d="M980 2971 c0 -6 4 -13 10 -16 6 -3 7 1 4 9 -7 18 -14 21 -14 7z"/>
<path d="M910 2955 c0 -8 4 -15 10 -15 5 0 7 7 4 15 -4 8 -8 15 -10 15 -2 0
-4 -7 -4 -15z"/>
<path d="M1182 2888 c2 -46 7 -73 16 -76 13 -4 17 61 6 117 -12 56 -24 32 -22
-41z"/>
<path d="M6740 2951 c0 -5 5 -13 10 -16 6 -3 10 -2 10 4 0 5 -4 13 -10 16 -5
3 -10 2 -10 -4z"/>
<path d="M1045 2940 c-3 -5 -2 -10 4 -10 5 0 13 5 16 10 3 6 2 10 -4 10 -5 0
-13 -4 -16 -10z"/>
<path d="M1149 2945 c-4 -3 -5 -25 -3 -48 3 -37 2 -38 -5 -12 -5 17 -10 23
-11 15 -6 -45 -8 -57 -14 -75 l-8 -20 13 20 c7 11 19 25 26 30 10 7 13 26 11
54 -2 23 -6 40 -9 36z"/>
<path d="M928 2923 c7 -3 16 -2 19 1 4 3 -2 6 -13 5 -11 0 -14 -3 -6 -6z"/>
<path d="M7384 2908 c3 -13 6 -27 6 -33 0 -5 5 -3 10 5 15 23 12 50 -6 50 -12
0 -15 -6 -10 -22z"/>
<path d="M7200 2887 c0 -8 -3 -22 -6 -31 -4 -11 -1 -16 10 -16 12 0 15 7 12
26 -6 31 -16 45 -16 21z"/>
<path d="M6730 2886 c0 -2 7 -9 15 -16 9 -7 15 -8 15 -2 0 5 -7 12 -15 16 -8
3 -15 4 -15 2z"/>
<path d="M1877 2855 c-49 -12 -87 -39 -87 -61 0 -7 -23 -32 -51 -56 -48 -40
-108 -116 -154 -193 -19 -32 -19 -34 -1 -67 10 -18 39 -57 65 -87 l47 -54 28
18 c15 10 25 24 22 31 -5 13 22 49 31 40 3 -2 0 -14 -7 -25 -20 -39 10 -23 82
40 37 33 74 58 81 56 8 -4 9 -6 0 -6 -23 -2 -117 -103 -118 -127 0 -13 3 -24
7 -24 4 0 8 6 8 13 0 9 2 9 8 0 8 -13 80 -15 88 -2 2 4 -5 10 -16 14 -11 3
-20 10 -20 15 0 6 11 5 26 0 14 -6 39 -10 56 -10 l31 0 -7 77 c-7 93 -26 194
-38 210 -5 6 -9 30 -10 52 0 23 -4 41 -8 41 -10 0 -60 -66 -60 -80 0 -6 -4 -8
-10 -5 -5 3 -10 1 -10 -5 0 -6 -4 -9 -9 -5 -5 3 -16 -2 -24 -10 -16 -15 -37
-20 -37 -8 0 3 23 32 50 64 28 32 50 63 50 71 0 10 3 9 10 -2 8 -13 11 -13 25
1 13 13 15 25 8 56 l-8 40 -48 -12z m-37 -234 c0 -5 -7 -11 -15 -15 -15 -5
-20 5 -8 17 9 10 23 9 23 -2z m140 -135 c0 -3 -4 -8 -10 -11 -5 -3 -10 -1 -10
4 0 6 5 11 10 11 6 0 10 -2 10 -4z"/>
<path d="M6665 2860 c-3 -5 -2 -10 4 -10 5 0 13 5 16 10 3 6 2 10 -4 10 -5 0
-13 -4 -16 -10z"/>
<path d="M6520 2850 c0 -5 9 -10 21 -10 11 0 17 5 14 10 -3 6 -13 10 -21 10
-8 0 -14 -4 -14 -10z"/>
<path d="M650 2828 c0 -7 7 -22 16 -33 14 -19 14 -19 10 5 -2 14 -5 28 -5 33
-2 12 -21 8 -21 -5z"/>
<path d="M1141 2833 c0 -7 -22 -26 -48 -42 -38 -24 -47 -35 -48 -58 0 -33 24
-57 42 -41 7 6 13 19 13 29 0 11 4 19 8 19 15 0 45 65 39 85 -2 11 -5 14 -6 8z"/>
<path d="M6665 2820 c3 -5 13 -10 21 -10 8 0 14 5 14 10 0 6 -9 10 -21 10 -11
0 -17 -4 -14 -10z"/>
<path d="M6820 2811 c0 -5 7 -14 15 -21 16 -14 18 -10 9 14 -6 17 -24 22 -24
7z"/>
<path d="M30 2799 c0 -5 5 -7 10 -4 6 3 10 8 10 11 0 2 -4 4 -10 4 -5 0 -10
-5 -10 -11z"/>
<path d="M1196 2791 c-4 -7 -5 -15 -2 -18 9 -9 19 4 14 18 -4 11 -6 11 -12 0z"/>
<path d="M6800 2791 c0 -5 5 -13 10 -16 6 -3 10 -2 10 4 0 5 -4 13 -10 16 -5
3 -10 2 -10 -4z"/>
<path d="M6713 2775 c-9 -10 -10 -16 -2 -21 6 -3 15 0 20 7 6 11 9 10 15 -4 5
-14 9 -15 20 -6 8 6 14 18 14 25 0 18 -51 18 -67 -1z"/>
<path d="M46 2764 c-9 -24 -7 -27 9 -10 17 17 19 26 6 26 -5 0 -12 -7 -15 -16z"/>
<path d="M1155 2769 c-4 -6 -5 -12 -2 -15 2 -3 7 2 10 11 7 17 1 20 -8 4z"/>
<path d="M1002 2746 c13 -12 27 -19 32 -15 11 10 -13 34 -37 35 -15 2 -15 -1
5 -20z"/>
<path d="M7556 2747 c-9 -35 -7 -107 3 -107 6 0 24 -29 42 -65 17 -36 37 -65
44 -65 6 0 21 10 33 23 22 24 29 47 14 47 -13 0 -39 67 -49 125 -5 30 -13 49
-20 48 -7 -2 -23 1 -37 6 -20 8 -25 6 -30 -12z"/>
<path d="M6797 2743 c3 -7 9 -13 14 -13 5 0 9 6 9 13 0 8 -6 14 -14 14 -8 0
-12 -6 -9 -14z"/>
<path d="M1191 2733 c-6 -10 -11 -13 -11 -6 0 6 -15 -3 -34 -20 -19 -18 -32
-35 -30 -39 3 -4 24 1 48 12 24 10 47 16 50 13 3 -4 6 8 6 25 0 35 -13 42 -29
15z"/>
<path d="M6650 2740 c0 -5 5 -10 10 -10 6 0 10 5 10 10 0 6 -4 10 -10 10 -5 0
-10 -4 -10 -10z"/>
<path d="M6351 2724 c0 -11 3 -14 6 -6 3 7 2 16 -1 19 -3 4 -6 -2 -5 -13z"/>
<path d="M6750 2704 c-13 -33 -13 -54 0 -54 6 0 10 9 10 20 0 11 4 20 9 20 6
0 9 9 8 20 -2 28 -16 25 -27 -6z"/>
<path d="M6837 2710 c3 -11 7 -20 9 -20 2 0 4 9 4 20 0 11 -4 20 -9 20 -5 0
-7 -9 -4 -20z"/>
<path d="M1000 2706 c0 -2 8 -10 18 -17 15 -13 16 -12 3 4 -13 16 -21 21 -21
13z"/>
<path d="M2711 2694 c0 -11 3 -14 6 -6 3 7 2 16 -1 19 -3 4 -6 -2 -5 -13z"/>
<path d="M7196 2695 c-3 -8 -1 -15 4 -15 6 0 10 7 10 15 0 8 -2 15 -4 15 -2 0
-6 -7 -10 -15z"/>
<path d="M830 2686 c0 -2 7 -7 16 -10 8 -3 12 -2 9 4 -6 10 -25 14 -25 6z"/>
<path d="M2727 2676 c-4 -10 -5 -21 -2 -24 9 -9 17 6 13 25 -3 17 -4 17 -11
-1z"/>
<path d="M1210 2670 c0 -5 5 -10 10 -10 6 0 10 5 10 10 0 6 -4 10 -10 10 -5 0
-10 -4 -10 -10z"/>
<path d="M6690 2670 c0 -5 7 -10 15 -10 8 0 15 5 15 10 0 6 -7 10 -15 10 -8 0
-15 -4 -15 -10z"/>
<path d="M6787 2674 c-8 -8 1 -24 14 -24 5 0 9 7 9 15 0 15 -12 20 -23 9z"/>
<path d="M1085 2660 c-3 -5 -1 -10 4 -10 6 0 11 5 11 10 0 6 -2 10 -4 10 -3 0
-8 -4 -11 -10z"/>
<path d="M1168 2649 c-25 -14 -22 -29 6 -29 23 0 41 22 29 34 -8 8 -15 7 -35
-5z"/>
<path d="M6640 2650 c0 -5 5 -10 11 -10 5 0 7 5 4 10 -3 6 -8 10 -11 10 -2 0
-4 -4 -4 -10z"/>
<path d="M2760 2633 c-8 -13 -13 -14 -16 -5 -8 18 -21 14 -27 -9 -4 -15 -2
-19 10 -15 8 3 19 6 23 6 5 0 14 9 20 20 13 25 5 27 -10 3z"/>
<path d="M847 2629 c7 -7 15 -10 18 -7 3 3 -2 9 -12 12 -14 6 -15 5 -6 -5z"/>
<path d="M1206 2605 c-3 -9 0 -15 9 -15 16 0 20 16 6 24 -5 3 -11 -1 -15 -9z"/>
<path d="M6611 2604 c0 -11 3 -14 6 -6 3 7 2 16 -1 19 -3 4 -6 -2 -5 -13z"/>
<path d="M6705 2609 c-4 -6 -5 -12 -2 -15 2 -3 7 2 10 11 7 17 1 20 -8 4z"/>
<path d="M1251 2594 c0 -11 3 -14 6 -6 3 7 2 16 -1 19 -3 4 -6 -2 -5 -13z"/>
<path d="M2150 2596 c0 -9 5 -16 10 -16 6 0 10 4 10 9 0 6 -4 13 -10 16 -5 3
-10 -1 -10 -9z"/>
<path d="M2395 2589 c-4 -6 -5 -12 -2 -15 2 -3 7 2 10 11 7 17 1 20 -8 4z"/>
<path d="M6660 2589 c0 -5 5 -7 10 -4 6 3 10 8 10 11 0 2 -4 4 -10 4 -5 0 -10
-5 -10 -11z"/>
<path d="M2698 2583 c-16 -4 -35 -59 -24 -70 8 -9 35 17 52 49 15 29 12 32
-28 21z"/>
<path d="M5240 2574 c0 -8 5 -12 10 -9 6 4 8 11 5 16 -9 14 -15 11 -15 -7z"/>
<path d="M7784 2563 c-9 -14 -8 -24 4 -45 14 -24 23 -28 59 -28 23 0 45 5 48
10 9 14 -17 70 -31 70 -6 0 -24 3 -40 6 -21 4 -32 0 -40 -13z"/>
<path d="M6130 2550 c13 -23 20 -26 20 -6 0 8 -7 16 -15 20 -13 4 -14 2 -5
-14z"/>
<path d="M2360 2528 c-12 -22 -12 -22 6 -6 10 10 15 20 12 24 -4 3 -12 -5 -18
-18z"/>
<path d="M5890 2540 c0 -5 5 -10 10 -10 6 0 10 5 10 10 0 6 -4 10 -10 10 -5 0
-10 -4 -10 -10z"/>
<path d="M2305 2530 c3 -5 8 -10 11 -10 2 0 4 5 4 10 0 6 -5 10 -11 10 -5 0
-7 -4 -4 -10z"/>
<path d="M2651 2504 c0 -11 3 -14 6 -6 3 7 2 16 -1 19 -3 4 -6 -2 -5 -13z"/>
<path d="M7480 2471 c0 -11 4 -21 9 -21 18 0 21 18 6 30 -13 10 -15 9 -15 -9z"/>
<path d="M1563 2468 c2 -7 10 -39 17 -70 l13 -58 39 0 c21 0 38 2 38 5 0 2
-18 23 -40 47 -22 24 -43 53 -46 66 -3 12 -11 22 -16 22 -6 0 -8 -6 -5 -12z"/>
<path d="M6185 2471 c-3 -5 -1 -12 5 -16 5 -3 10 1 10 9 0 18 -6 21 -15 7z"/>
<path d="M980 2460 c0 -5 5 -10 11 -10 5 0 7 5 4 10 -3 6 -8 10 -11 10 -2 0
-4 -4 -4 -10z"/>
<path d="M2273 2452 c-18 -9 -33 -21 -33 -28 0 -6 -9 -14 -20 -17 -11 -3 -20
-10 -20 -16 0 -19 17 -12 49 20 17 17 31 25 31 19 0 -7 8 -9 20 -5 36 11 21
-4 -27 -29 -27 -13 -57 -32 -68 -41 -20 -16 -20 -16 3 -10 13 4 22 2 22 -4 0
-6 8 -11 17 -11 15 0 14 2 -3 14 -18 14 -18 15 10 26 16 6 42 20 58 32 l30 21
-22 12 c-15 8 -19 15 -11 19 6 4 16 4 23 0 7 -4 8 -3 4 4 -9 15 -22 14 -63 -6z"/>
<path d="M5751 2444 c0 -11 3 -14 6 -6 3 7 2 16 -1 19 -3 4 -6 -2 -5 -13z"/>
<path d="M6517 2445 c-4 -8 -2 -17 3 -20 6 -4 10 3 10 14 0 25 -6 27 -13 6z"/>
<path d="M6411 2414 c13 -16 29 -19 29 -5 0 5 -9 11 -21 14 -16 4 -18 3 -8 -9z"/>
<path d="M6490 2416 c0 -9 5 -16 10 -16 6 0 10 4 10 9 0 6 -4 13 -10 16 -5 3
-10 -1 -10 -9z"/>
<path d="M6330 2370 c0 -5 5 -10 10 -10 6 0 10 5 10 10 0 6 -4 10 -10 10 -5 0
-10 -4 -10 -10z"/>
<path d="M2265 2360 c-3 -5 -1 -10 4 -10 6 0 11 5 11 10 0 6 -2 10 -4 10 -3 0
-8 -4 -11 -10z"/>
<path d="M6260 2352 c0 -7 8 -12 17 -10 24 4 27 24 3 24 -11 0 -20 -6 -20 -14z"/>
<path d="M2595 2330 c-3 -5 1 -10 9 -10 9 0 16 5 16 10 0 6 -4 10 -9 10 -6 0
-13 -4 -16 -10z"/>
<path d="M108 2323 c7 -3 16 -2 19 1 4 3 -2 6 -13 5 -11 0 -14 -3 -6 -6z"/>
<path d="M2511 2319 c-19 -8 -21 -12 -11 -24 7 -8 17 -15 22 -15 12 0 43 30
31 30 -4 0 -1 5 7 10 12 8 12 10 -5 9 -11 0 -31 -5 -44 -10z"/>
<path d="M2426 2285 c-8 -8 -19 -15 -25 -15 -15 0 -14 -22 2 -44 11 -15 17
-16 35 -7 11 6 36 10 54 10 32 -2 32 -2 -7 -9 l-40 -7 50 -1 c50 -1 50 -1 28
17 -12 10 -19 21 -16 25 10 9 -28 46 -48 46 -10 0 -24 -7 -33 -15z"/>
<path d="M2275 2250 c-3 -6 1 -7 9 -4 18 7 21 14 7 14 -6 0 -13 -4 -16 -10z"/>
<path d="M2335 2250 c-4 -6 -10 -8 -13 -6 -4 2 -18 -2 -32 -10 -29 -16 -19
-19 13 -4 22 10 22 10 0 -6 -31 -22 -29 -36 2 -22 14 6 25 18 25 25 0 8 3 12
8 10 4 -3 13 1 20 9 10 12 10 14 -2 14 -8 0 -18 -5 -21 -10z"/>
<path d="M2380 2225 c0 -8 4 -15 10 -15 5 0 7 7 4 15 -4 8 -8 15 -10 15 -2 0
-4 -7 -4 -15z"/>
<path d="M5858 2233 c7 -3 16 -2 19 1 4 3 -2 6 -13 5 -11 0 -14 -3 -6 -6z"/>
<path d="M187 2208 c-15 -14 -27 -28 -27 -32 0 -13 21 -5 41 15 30 30 18 46
-14 17z"/>
<path d="M1630 2220 c-8 -5 -10 -10 -5 -10 6 0 17 5 25 10 8 5 11 10 5 10 -5
0 -17 -5 -25 -10z"/>
<path d="M1220 2201 c0 -11 39 -25 47 -18 3 3 2 10 -2 16 -8 13 -45 15 -45 2z"/>
<path d="M1407 2179 c-35 -19 -40 -19 -69 -4 -36 17 -58 19 -58 5 0 -5 5 -10
10 -10 6 0 10 -5 10 -10 0 -16 39 -55 46 -47 4 4 1 14 -7 24 -12 15 -12 16 4
10 10 -4 20 -7 23 -7 2 0 0 -8 -3 -17 -5 -12 3 -8 20 9 23 23 35 27 67 25 39
-3 80 20 63 36 -13 13 -69 6 -106 -14z"/>
<path d="M2308 2183 c-17 -9 -25 -19 -21 -29 7 -19 43 -39 43 -24 0 5 4 10 10
10 5 0 7 -7 4 -15 -4 -10 0 -15 11 -15 11 0 15 5 12 14 -7 17 16 28 41 20 14
-5 15 -4 2 5 -13 10 -13 12 0 21 13 9 13 10 0 10 -10 0 -11 3 -3 8 21 13 -72
9 -99 -5z"/>
<path d="M1590 2166 c0 -2 7 -6 15 -10 8 -3 15 -1 15 4 0 6 -7 10 -15 10 -8 0
-15 -2 -15 -4z"/>
<path d="M2020 2160 c-8 -5 -11 -12 -8 -16 10 -9 38 3 38 16 0 12 -10 13 -30
0z"/>
<path d="M2240 2146 c0 -20 5 -26 21 -26 19 0 20 2 8 17 -8 9 -13 19 -11 22 2
3 -1 7 -7 9 -6 2 -11 -8 -11 -22z"/>
<path d="M2098 2153 c7 -3 16 -2 19 1 4 3 -2 6 -13 5 -11 0 -14 -3 -6 -6z"/>
<path d="M2190 2125 c10 -12 10 -15 -3 -15 -8 0 -18 6 -20 13 -4 7 -6 8 -6 1
-1 -6 6 -17 14 -24 8 -7 15 -21 15 -31 0 -11 7 -19 18 -19 14 0 15 2 2 10 -13
8 -13 10 2 10 10 0 22 9 28 20 8 16 8 20 -4 20 -7 0 -16 7 -20 15 -3 8 -13 15
-22 15 -13 0 -14 -3 -4 -15z"/>
<path d="M1964 2124 c-5 -1 -36 -6 -69 -9 -41 -5 -54 -10 -41 -15 19 -6 19 -7
-2 -12 -12 -4 -22 -3 -22 1 0 3 -20 5 -45 3 -25 -2 -45 -8 -45 -12 0 -8 83
-20 145 -21 17 0 73 -4 125 -9 52 -5 96 -8 97 -6 2 2 1 11 -3 20 -4 10 -19 16
-43 17 -20 1 -28 3 -19 6 14 3 16 9 8 23 -9 16 -50 23 -86 14z m16 -45 c16 -5
4 -6 -35 -2 -33 3 -62 7 -64 9 -8 8 74 2 99 -7z"/>
<path d="M2115 2120 c-3 -5 -1 -10 4 -10 6 0 11 5 11 10 0 6 -2 10 -4 10 -3 0
-8 -4 -11 -10z"/>
<path d="M2060 2110 c0 -5 4 -10 9 -10 6 0 13 5 16 10 3 6 -1 10 -9 10 -9 0
-16 -4 -16 -10z"/>
<path d="M4110 2100 c0 -5 5 -10 10 -10 6 0 10 5 10 10 0 6 -4 10 -10 10 -5 0
-10 -4 -10 -10z"/>
<path d="M2125 2081 c-3 -5 -1 -12 4 -16 6 -3 8 -12 4 -20 -6 -18 8 -20 25 -3
19 19 15 48 -7 48 -11 0 -22 -4 -26 -9z"/>
<path d="M123 1969 c1 -6 -13 -19 -31 -29 -34 -19 -81 -70 -63 -70 6 0 18 8
28 18 10 10 38 30 62 46 33 21 40 30 30 37 -19 12 -30 11 -26 -2z"/>
<path d="M4650 1750 c-8 -5 -12 -11 -10 -14 3 -2 14 2 24 10 22 15 10 19 -14
4z"/>
<path d="M4485 1680 c-16 -7 -17 -9 -3 -9 9 -1 20 4 23 9 7 11 7 11 -20 0z"/>
<path d="M4550 1679 c0 -5 5 -7 10 -4 6 3 10 8 10 11 0 2 -4 4 -10 4 -5 0 -10
-5 -10 -11z"/>
<path d="M4520 1659 c0 -5 5 -7 10 -4 6 3 10 8 10 11 0 2 -4 4 -10 4 -5 0 -10
-5 -10 -11z"/>
<path d="M4485 1640 c-3 -5 1 -10 9 -10 9 0 16 5 16 10 0 6 -4 10 -9 10 -6 0
-13 -4 -16 -10z"/>
<path d="M5470 1582 c0 -11 11 -27 25 -36 14 -9 25 -12 25 -7 0 5 3 17 6 26 4
9 3 15 -2 13 -5 -1 -19 3 -31 10 -20 11 -23 10 -23 -6z"/>
<path d="M5970 1584 c0 -10 6 -14 15 -11 8 4 17 2 20 -3 9 -15 25 -12 25 4 0
7 -10 16 -22 20 -34 9 -38 8 -38 -10z"/>
<path d="M4357 1473 c-12 -12 -7 -22 8 -17 8 4 15 10 15 15 0 11 -14 12 -23 2z"/>
<path d="M5840 1450 c0 -13 5 -18 15 -14 8 4 15 12 15 20 0 8 -7 14 -15 14 -8
0 -15 -9 -15 -20z"/>
<path d="M4313 1443 c-15 -5 -17 -23 -4 -23 5 0 11 7 15 15 3 8 4 15 3 14 -1
0 -8 -3 -14 -6z"/>
<path d="M5350 1438 c0 -2 11 -34 24 -73 39 -112 91 -206 140 -255 43 -42 46
-43 46 -20 0 29 -48 116 -79 144 -11 11 -21 28 -21 38 0 11 -11 36 -25 56 -14
20 -25 44 -25 54 0 9 -13 26 -30 38 -16 12 -30 20 -30 18z"/>
<path d="M5470 1361 c0 -6 5 -13 10 -16 6 -3 10 1 10 9 0 9 -4 16 -10 16 -5 0
-10 -4 -10 -9z"/>
<path d="M5200 1316 c0 -9 5 -16 10 -16 6 0 10 4 10 9 0 6 -4 13 -10 16 -5 3
-10 -1 -10 -9z"/>
<path d="M3245 1310 c-3 -5 -4 -14 -1 -19 3 -5 -1 -12 -10 -15 -8 -3 -12 -2
-9 4 11 18 -12 11 -36 -11 l-24 -21 23 5 c19 5 21 3 11 -9 -6 -8 -17 -14 -23
-14 -7 0 -27 -13 -46 -30 -35 -29 -70 -39 -70 -20 0 6 6 10 14 10 8 0 18 5 22
11 11 18 -38 -1 -58 -22 -11 -11 -14 -20 -8 -24 17 -11 11 -25 -11 -25 -19 0
-49 -21 -49 -34 0 -3 7 -6 15 -6 8 0 15 5 15 10 0 6 10 15 23 21 29 13 60 31
89 52 43 31 99 67 104 67 3 0 19 9 34 20 20 14 27 26 23 40 -6 22 -18 26 -28
10z m-185 -150 c0 -5 -4 -10 -10 -10 -5 0 -10 5 -10 10 0 6 5 10 10 10 6 0 10
-4 10 -10z"/>
<path d="M111 1256 c-10 -12 -8 -13 9 -9 25 7 37 23 17 23 -8 0 -20 -6 -26
-14z"/>
<path d="M5715 1247 c-3 -6 3 -37 12 -67 15 -46 24 -58 58 -77 59 -32 71 -29
46 10 -11 17 -32 55 -47 82 -33 63 -58 82 -69 52z"/>
<path d="M3330 1135 c0 -8 -7 -15 -17 -15 -9 0 -14 -3 -10 -6 10 -10 47 7 47
22 0 8 -4 14 -10 14 -5 0 -10 -7 -10 -15z"/>
<path d="M3590 1080 c0 -11 6 -20 14 -20 21 0 31 21 15 31 -22 14 -29 11 -29
-11z"/>
<path d="M5111 1066 c-42 -43 -45 -35 84 -239 13 -19 35 -37 57 -44 21 -7 54
-23 75 -36 21 -13 50 -27 64 -30 26 -7 26 -6 32 56 7 71 0 81 -61 91 -51 8
-76 36 -131 141 -54 105 -69 113 -120 61z"/>
<path d="M2937 1076 c-4 -10 -1 -13 9 -9 7 3 14 9 14 14 0 14 -17 10 -23 -5z"/>
<path d="M3220 1070 c0 -5 7 -10 15 -10 8 0 15 5 15 10 0 6 -7 10 -15 10 -8 0
-15 -4 -15 -10z"/>
<path d="M3160 1030 c0 -13 11 -13 30 0 12 8 11 10 -7 10 -13 0 -23 -4 -23
-10z"/>
<path d="M2955 1010 c3 -5 8 -10 11 -10 2 0 4 5 4 10 0 6 -5 10 -11 10 -5 0
-7 -4 -4 -10z"/>
<path d="M3109 994 c-12 -14 -11 -16 5 -13 11 2 21 10 24 17 5 17 -13 15 -29
-4z"/>
<path d="M2960 959 c0 -5 5 -7 10 -4 6 3 10 8 10 11 0 2 -4 4 -10 4 -5 0 -10
-5 -10 -11z"/>
<path d="M5900 961 c0 -5 5 -13 10 -16 6 -3 10 -2 10 4 0 5 -4 13 -10 16 -5 3
-10 2 -10 -4z"/>
<path d="M2920 944 c0 -8 5 -12 10 -9 6 3 10 10 10 16 0 5 -4 9 -10 9 -5 0
-10 -7 -10 -16z"/>
<path d="M3052 945 c-17 -19 -1 -19 24 0 14 11 15 14 4 14 -8 0 -21 -6 -28
-14z"/>
<path d="M4995 940 c-9 -28 3 -79 27 -113 13 -18 23 -56 29 -102 4 -41 13 -83
18 -94 6 -10 10 -34 9 -52 -1 -40 46 -148 105 -239 39 -60 71 -100 81 -100 16
0 12 39 -8 78 -13 26 -26 65 -29 87 -4 22 -22 71 -42 109 -19 38 -35 77 -35
88 0 10 -6 21 -12 23 -9 4 -12 22 -10 55 3 38 -1 56 -18 80 -12 17 -32 57 -45
90 -13 33 -32 71 -43 85 -20 25 -21 25 -27 5z"/>
<path d="M5600 897 c0 -37 31 -120 54 -145 19 -22 21 -22 33 -6 14 19 18 74 5
74 -4 0 -22 23 -40 50 -36 54 -52 63 -52 27z"/>
<path d="M5917 914 c-10 -10 -9 -66 2 -83 13 -20 31 -4 31 28 0 30 -21 66 -33
55z"/>
<path d="M4720 778 c0 -6 -7 -19 -16 -29 -14 -16 -14 -21 2 -54 9 -20 35 -49
58 -64 22 -16 55 -45 73 -65 20 -23 40 -36 56 -36 13 0 30 -7 37 -15 18 -21
30 -9 30 30 0 29 -8 40 -60 81 -38 30 -63 58 -70 79 -15 46 -54 85 -85 85 -14
0 -25 -5 -25 -12z"/>
<path d="M5553 633 c-18 -7 -16 -30 5 -89 35 -94 43 -97 37 -14 -8 107 -11
116 -42 103z"/>
<path d="M2380 590 c0 -11 5 -20 10 -20 6 0 10 9 10 20 0 11 -4 20 -10 20 -5
0 -10 -9 -10 -20z"/>
<path d="M6716 544 c-10 -25 4 -82 21 -89 24 -9 26 0 13 54 -12 52 -23 63 -34
35z"/>
<path d="M2085 531 c-8 -14 33 -34 52 -26 14 5 14 7 -3 20 -22 17 -40 19 -49
6z"/>
<path d="M6505 501 c-26 -52 -35 -121 -20 -158 7 -17 16 -55 19 -84 3 -28 12
-59 20 -68 9 -10 13 -26 10 -38 -4 -15 2 -30 20 -48 40 -40 51 -29 54 56 2 40
7 76 11 79 10 6 -10 130 -28 174 -10 24 -9 32 5 47 11 13 13 19 5 19 -7 0 -28
12 -46 26 l-34 25 -16 -30z"/>
<path d="M7435 520 c-7 -12 32 -80 46 -80 13 0 12 6 -11 50 -22 43 -25 46 -35
30z"/>
<path d="M6798 333 c-1 -21 -1 -49 0 -63 2 -42 82 -190 124 -231 l40 -39 117
0 118 0 -1 38 c-1 20 -4 42 -9 47 -55 72 -72 91 -96 106 -16 10 -32 22 -36 28
-3 6 -11 9 -16 6 -5 -4 -9 -1 -9 4 0 6 -6 11 -12 11 -7 0 -24 15 -38 34 -15
21 -49 44 -95 64 -38 18 -73 32 -77 32 -5 0 -9 -17 -10 -37z"/>
<path d="M5051 188 c-6 -18 -4 -26 11 -36 10 -8 33 -45 50 -83 l31 -69 58 0
c49 0 59 3 64 20 8 25 37 26 72 3 15 -10 37 -18 50 -18 19 -1 23 4 23 28 0 27
-46 106 -62 107 -12 0 -38 -31 -38 -46 0 -31 -106 1 -148 45 -15 16 -44 38
-65 51 l-37 22 -9 -24z"/>
<path d="M5730 173 c0 -24 57 -109 86 -127 13 -9 24 -23 24 -31 0 -8 4 -15 9
-15 9 0 4 21 -21 90 -10 28 -73 100 -88 100 -6 0 -10 -7 -10 -17z"/>
<path d="M5996 138 c3 -13 16 -36 28 -53 l21 -30 3 27 c4 30 -25 77 -46 78 -9
0 -11 -7 -6 -22z"/>
<path d="M4242 45 l-3 -45 66 0 c60 0 65 1 56 18 -12 23 -82 72 -102 72 -10 0
-15 -14 -17 -45z"/>
<path d="M6466 43 c-3 -4 -6 -15 -6 -25 0 -13 8 -18 30 -18 17 0 30 4 30 9 0
12 -46 41 -54 34z"/>
<path d="M6545 19 c-20 -20 -20 -20 39 -17 43 2 61 7 63 18 3 11 2 12 -4 3 -7
-10 -13 -10 -29 2 -26 19 -45 18 -69 -6z"/>
</g>
</svg>
